<svg xmlns="http://www.w3.org/2000/svg" xmlns:xlink="http://www.w3.org/1999/xlink" width="500" zoomAndPan="magnify" viewBox="0 0 375 374.999991" height="500" preserveAspectRatio="xMidYMid meet" version="1.0"><defs><filter x="0%" y="0%" width="100%" height="100%" id="78346d1e4c"><feColorMatrix values="0 0 0 0 1 0 0 0 0 1 0 0 0 0 1 0 0 0 1 0" color-interpolation-filters="sRGB"/></filter><mask id="b679f676ac"><g filter="url(#78346d1e4c)"><rect x="-37.5" width="450" fill="#000000" y="-37.499999" height="449.999989" fill-opacity="0.31"/></g></mask><clipPath id="80c5d6da42"><path d="M 0.5 2 L 300.5 2 L 300.5 241 L 0.5 241 Z M 0.5 2 " clip-rule="nonzero"/></clipPath><clipPath id="1f02ce4769"><rect x="0" width="301" y="0" height="243"/></clipPath><clipPath id="22ce5b4d42"><path d="M 77.203125 122.945312 L 306.703125 122.945312 L 306.703125 251.945312 L 77.203125 251.945312 Z M 77.203125 122.945312 " clip-rule="nonzero"/></clipPath></defs><g mask="url(#b679f676ac)"><g transform="matrix(1, 0, 0, 1, 37, 66)"><g clip-path="url(#1f02ce4769)"><g clip-path="url(#80c5d6da42)"><path fill="#b9d5f1" d="M 7.144531 48.585938 C 2.160156 61.5625 1.105469 75.695312 0.867188 89.597656 C 0.5 110.933594 2.109375 132.941406 11.5 152.097656 C 19.480469 168.371094 32.589844 181.554688 46.480469 193.195312 C 61.089844 205.4375 76.917969 216.386719 94.292969 224.210938 C 133.496094 241.871094 178.28125 242.664062 220.960938 237.515625 C 241.878906 234.992188 263.984375 230.449219 279.023438 215.691406 C 298.285156 196.792969 300.5 166.921875 300.390625 139.933594 C 300.28125 111.804688 298.269531 81.722656 281.289062 59.304688 C 260.695312 32.121094 224.105469 23.695312 190.484375 18.050781 C 153.5 11.84375 115.234375 4.390625 77.773438 2.171875 C 48.230469 0.425781 17.644531 21.234375 7.144531 48.585938 Z M 7.144531 48.585938 " fill-opacity="1" fill-rule="nonzero"/></g></g></g></g><g clip-path="url(#22ce5b4d42)"><path fill="#000000" d="M 288.773438 230.445312 L 277.71875 230.445312 C 277.902344 229.269531 278.015625 228.078125 278.015625 226.863281 C 278.015625 213.03125 266.753906 201.777344 252.914062 201.777344 C 239.074219 201.777344 227.8125 213.03125 227.8125 226.863281 C 227.8125 228.078125 227.921875 229.269531 228.105469 230.445312 L 155.800781 230.445312 C 155.980469 229.269531 156.09375 228.078125 156.09375 226.863281 C 156.09375 213.03125 144.832031 201.777344 130.992188 201.777344 C 117.152344 201.777344 105.890625 213.03125 105.890625 226.863281 C 105.890625 228.078125 106.003906 229.269531 106.183594 230.445312 L 95.132812 230.445312 C 89.195312 230.445312 84.375 225.628906 84.375 219.695312 L 84.375 208.945312 L 91.546875 208.945312 C 93.1875 208.945312 94.628906 207.824219 95.019531 206.230469 L 98.605469 191.898438 C 98.875 190.832031 98.636719 189.699219 97.960938 188.832031 C 97.277344 187.949219 96.238281 187.445312 95.132812 187.445312 L 87.554688 187.445312 C 88.898438 186.117188 90.582031 185.109375 92.527344 184.632812 L 104.40625 181.652344 C 109.125 180.476562 113.21875 177.382812 115.625 173.167969 L 120.625 164.417969 C 132.730469 143.253906 155.394531 130.113281 179.78125 130.113281 L 189.78125 130.113281 C 214.167969 130.113281 236.832031 143.253906 248.933594 164.417969 L 253.597656 172.566406 C 256.273438 177.253906 260.867188 180.460938 266.207031 181.34375 L 278.558594 183.398438 C 282.285156 184.015625 285.691406 185.445312 288.632812 187.445312 L 281.601562 187.445312 C 279.625 187.445312 278.015625 189.054688 278.015625 191.027344 C 278.015625 195.773438 279.878906 200.265625 283.28125 203.722656 C 286.699219 207.082031 291.195312 208.945312 295.945312 208.945312 L 299.53125 208.945312 L 299.53125 219.695312 C 299.53125 225.628906 294.710938 230.445312 288.773438 230.445312 Z M 252.914062 244.777344 C 243.023438 244.777344 234.984375 236.746094 234.984375 226.863281 C 234.984375 216.980469 243.023438 208.945312 252.914062 208.945312 C 262.800781 208.945312 270.84375 216.980469 270.84375 226.863281 C 270.84375 236.746094 262.800781 244.777344 252.914062 244.777344 Z M 130.992188 244.777344 C 121.101562 244.777344 113.0625 236.746094 113.0625 226.863281 C 113.0625 216.980469 121.101562 208.945312 130.992188 208.945312 C 140.882812 208.945312 148.921875 216.980469 148.921875 226.863281 C 148.921875 236.746094 140.882812 244.777344 130.992188 244.777344 Z M 84.417969 194.613281 L 90.539062 194.613281 L 88.746094 201.777344 L 84.375 201.777344 L 84.375 195.046875 C 84.375 194.90625 84.402344 194.765625 84.417969 194.613281 Z M 295.566406 194.613281 C 296.964844 196.796875 298.042969 199.203125 298.703125 201.777344 L 295.945312 201.777344 C 293.085938 201.777344 290.382812 200.660156 288.351562 198.65625 C 287.1875 197.480469 286.335938 196.109375 285.800781 194.613281 Z M 279.738281 176.332031 L 267.382812 174.273438 C 264.1875 173.742188 261.429688 171.824219 259.820312 169.011719 L 255.152344 160.863281 C 241.789062 137.476562 216.730469 122.945312 189.78125 122.945312 L 179.78125 122.945312 C 152.828125 122.945312 127.769531 137.476562 114.40625 160.863281 L 109.40625 169.613281 C 107.949219 172.132812 105.5 173.992188 102.667969 174.707031 L 90.789062 177.675781 C 84.628906 179.214844 79.933594 183.804688 78.085938 189.601562 C 78.042969 189.699219 78.042969 189.796875 78.003906 189.894531 C 77.511719 191.546875 77.203125 193.269531 77.203125 195.046875 L 77.203125 219.695312 C 77.203125 229.578125 85.242188 237.613281 95.132812 237.613281 L 108.34375 237.613281 C 112.390625 246.066406 121.003906 251.945312 130.992188 251.945312 C 140.980469 251.945312 149.59375 246.066406 153.640625 237.613281 L 230.261719 237.613281 C 234.3125 246.066406 242.925781 251.945312 252.914062 251.945312 C 262.898438 251.945312 271.515625 246.066406 275.5625 237.613281 L 288.773438 237.613281 C 298.660156 237.613281 306.699219 229.578125 306.699219 219.695312 L 306.699219 208.148438 C 306.699219 192.316406 295.355469 178.933594 279.738281 176.332031 " fill-opacity="1" fill-rule="nonzero"/></g><path fill="#000000" d="M 199.125 180.277344 L 191.953125 180.277344 C 189.976562 180.277344 188.367188 181.886719 188.367188 183.863281 C 188.367188 185.835938 189.976562 187.445312 191.953125 187.445312 L 199.125 187.445312 C 201.097656 187.445312 202.710938 185.835938 202.710938 183.863281 C 202.710938 181.886719 201.097656 180.277344 199.125 180.277344 " fill-opacity="1" fill-rule="nonzero"/><path fill="#000000" d="M 130.992188 180.277344 L 123.820312 180.277344 C 121.84375 180.277344 120.234375 181.886719 120.234375 183.863281 C 120.234375 185.835938 121.84375 187.445312 123.820312 187.445312 L 130.992188 187.445312 C 132.96875 187.445312 134.578125 185.835938 134.578125 183.863281 C 134.578125 181.886719 132.96875 180.277344 130.992188 180.277344 " fill-opacity="1" fill-rule="nonzero"/><path fill="#000000" d="M 252.914062 230.445312 C 250.9375 230.445312 249.328125 228.835938 249.328125 226.863281 C 249.328125 224.886719 250.9375 223.277344 252.914062 223.277344 C 254.886719 223.277344 256.5 224.886719 256.5 226.863281 C 256.5 228.835938 254.886719 230.445312 252.914062 230.445312 Z M 252.914062 216.113281 C 246.972656 216.113281 242.15625 220.925781 242.15625 226.863281 C 242.15625 232.796875 246.972656 237.613281 252.914062 237.613281 C 258.851562 237.613281 263.671875 232.796875 263.671875 226.863281 C 263.671875 220.925781 258.851562 216.113281 252.914062 216.113281 " fill-opacity="1" fill-rule="nonzero"/><path fill="#000000" d="M 130.992188 230.445312 C 129.015625 230.445312 127.40625 228.835938 127.40625 226.863281 C 127.40625 224.886719 129.015625 223.277344 130.992188 223.277344 C 132.96875 223.277344 134.578125 224.886719 134.578125 226.863281 C 134.578125 228.835938 132.96875 230.445312 130.992188 230.445312 Z M 130.992188 216.113281 C 125.054688 216.113281 120.234375 220.925781 120.234375 226.863281 C 120.234375 232.796875 125.054688 237.613281 130.992188 237.613281 C 136.929688 237.613281 141.75 232.796875 141.75 226.863281 C 141.75 220.925781 136.929688 216.113281 130.992188 216.113281 " fill-opacity="1" fill-rule="nonzero"/><path fill="#000000" d="M 174.023438 169.527344 L 132.699219 169.527344 C 139.773438 152.621094 155.800781 141.546875 174.023438 140.890625 Z M 177.609375 133.695312 L 175.746094 133.695312 C 153.640625 133.695312 134.03125 146.949219 125.796875 167.484375 L 124.074219 171.78125 C 123.636719 172.886719 123.765625 174.132812 124.4375 175.113281 C 125.109375 176.109375 126.214844 176.695312 127.40625 176.695312 L 177.609375 176.695312 C 179.582031 176.695312 181.195312 175.085938 181.195312 173.113281 L 181.195312 137.277344 C 181.195312 135.304688 179.582031 133.695312 177.609375 133.695312 " fill-opacity="1" fill-rule="nonzero"/><path fill="#000000" d="M 243.765625 167.472656 C 240.742188 159.953125 236.1875 153.375 230.234375 147.902344 C 228.777344 146.558594 226.507812 146.65625 225.179688 148.113281 C 223.832031 149.570312 223.929688 151.835938 225.386719 153.164062 C 230.390625 157.769531 234.242188 163.273438 236.859375 169.527344 L 195.539062 169.527344 L 195.539062 140.890625 C 202.445312 141.15625 209.28125 142.960938 215.386719 146.152344 C 217.152344 147.078125 219.324219 146.390625 220.234375 144.640625 C 221.144531 142.890625 220.472656 140.722656 218.71875 139.796875 C 211.074219 135.808594 202.457031 133.695312 193.816406 133.695312 L 191.953125 133.695312 C 189.976562 133.695312 188.367188 135.304688 188.367188 137.277344 L 188.367188 173.113281 C 188.367188 175.085938 189.976562 176.695312 191.953125 176.695312 L 242.15625 176.695312 C 243.34375 176.695312 244.453125 176.109375 245.125 175.113281 C 245.796875 174.132812 245.921875 172.886719 245.488281 171.78125 L 243.765625 167.472656 " fill-opacity="1" fill-rule="nonzero"/></svg>