<svg xmlns="http://www.w3.org/2000/svg" xmlns:xlink="http://www.w3.org/1999/xlink" width="500" zoomAndPan="magnify" viewBox="0 0 375 374.999991" height="500" preserveAspectRatio="xMidYMid meet" version="1.0"><defs><filter x="0%" y="0%" width="100%" height="100%" id="001baa6659"><feColorMatrix values="0 0 0 0 1 0 0 0 0 1 0 0 0 0 1 0 0 0 1 0" color-interpolation-filters="sRGB"/></filter><mask id="7bb9d63943"><g filter="url(#001baa6659)"><rect x="-37.5" width="450" fill="#000000" y="-37.499999" height="449.999989" fill-opacity="0.31"/></g></mask><clipPath id="0afffe815b"><path d="M 0.5 2 L 300.5 2 L 300.5 241 L 0.5 241 Z M 0.5 2 " clip-rule="nonzero"/></clipPath><clipPath id="ae0ed125d6"><rect x="0" width="301" y="0" height="243"/></clipPath><clipPath id="380b000423"><path d="M 75.300781 122.773438 L 312 122.773438 L 312 235 L 75.300781 235 Z M 75.300781 122.773438 " clip-rule="nonzero"/></clipPath></defs><g mask="url(#7bb9d63943)"><g transform="matrix(1, 0, 0, 1, 37, 66)"><g clip-path="url(#ae0ed125d6)"><g clip-path="url(#0afffe815b)"><path fill="#b9d5f1" d="M 7.144531 48.585938 C 2.160156 61.5625 1.105469 75.695312 0.867188 89.597656 C 0.5 110.933594 2.109375 132.941406 11.5 152.097656 C 19.480469 168.371094 32.589844 181.554688 46.480469 193.195312 C 61.089844 205.4375 76.917969 216.386719 94.292969 224.210938 C 133.496094 241.871094 178.28125 242.664062 220.960938 237.515625 C 241.878906 234.992188 263.984375 230.449219 279.023438 215.691406 C 298.285156 196.792969 300.5 166.925781 300.390625 139.933594 C 300.28125 111.804688 298.269531 81.722656 281.289062 59.304688 C 260.695312 32.121094 224.105469 23.695312 190.484375 18.050781 C 153.5 11.84375 115.234375 4.390625 77.773438 2.171875 C 48.230469 0.425781 17.644531 21.234375 7.144531 48.585938 Z M 7.144531 48.585938 " fill-opacity="1" fill-rule="nonzero"/></g></g></g></g><g clip-path="url(#380b000423)"><path fill="#000000" d="M 151.664062 122.921875 C 143 122.941406 140.421875 123.054688 135.023438 123.425781 C 130.722656 123.722656 123.957031 124.125 119.988281 124.324219 C 109.488281 124.851562 105.910156 125.246094 100.242188 126.496094 C 95.140625 127.621094 88.21875 130.179688 85.398438 131.984375 C 83.105469 133.453125 80.238281 137.046875 79.246094 139.695312 C 78.640625 141.320312 77.628906 146.300781 77.308594 149.261719 C 76.957031 152.472656 76.988281 156.175781 77.402344 160.417969 C 77.589844 162.386719 77.867188 165.617188 78.011719 167.601562 C 78.15625 169.585938 78.550781 173.589844 78.894531 176.496094 C 79.433594 181.101562 79.5 182.421875 79.390625 186.714844 C 79.324219 189.429688 79.378906 192.722656 79.519531 194.054688 C 79.65625 195.378906 79.691406 197.082031 79.597656 197.839844 C 79.441406 199.074219 79.359375 199.226562 78.78125 199.351562 C 76.234375 199.890625 75.546875 200.648438 75.410156 203.058594 C 75.285156 205.292969 75.785156 209.433594 76.332031 210.675781 C 76.644531 211.394531 77.046875 211.824219 77.730469 212.171875 C 78.886719 212.761719 82.6875 213.265625 84.433594 213.0625 C 85.730469 212.910156 86.128906 213.097656 86.671875 214.113281 C 87.105469 214.917969 88.898438 215.570312 91.113281 215.726562 C 92.929688 215.855469 93.308594 215.960938 94.070312 216.570312 C 94.910156 217.234375 95.035156 217.261719 97.113281 217.191406 L 99.28125 217.121094 L 99.820312 219.214844 C 101.3125 224.992188 104.738281 229.273438 109.886719 231.792969 C 115.734375 234.652344 122.171875 234.390625 127.855469 231.066406 C 133.007812 228.050781 136.332031 223.007812 137.171875 216.917969 C 137.296875 216.007812 137.464844 215.203125 137.542969 215.121094 C 137.625 215.039062 139.984375 214.960938 142.789062 214.941406 C 171.035156 214.753906 186.710938 214.570312 194.765625 214.328125 C 200.042969 214.171875 207.460938 214.105469 211.242188 214.183594 C 215.027344 214.261719 221.101562 214.238281 224.738281 214.136719 C 228.378906 214.03125 233.195312 214.039062 235.445312 214.152344 C 237.691406 214.269531 240.886719 214.386719 242.539062 214.417969 L 245.546875 214.476562 L 245.75 215.917969 C 246.171875 218.90625 246.886719 221.269531 248.09375 223.679688 C 251.101562 229.679688 257.296875 233.925781 263.945312 234.539062 C 269.9375 235.089844 275.730469 233.183594 279.859375 229.300781 C 282.746094 226.589844 284.386719 223.96875 285.601562 220.125 L 286.25 218.082031 L 290.679688 218.246094 L 292.507812 216.324219 L 296.328125 216.242188 C 299.828125 216.167969 300.246094 216.109375 301.347656 215.558594 C 302.222656 215.125 302.703125 214.679688 303.109375 213.9375 C 303.628906 212.988281 303.742188 212.914062 304.671875 212.914062 C 305.820312 212.914062 307.015625 212.277344 307.625 211.347656 C 308.128906 210.582031 309.082031 206.65625 309.304688 204.445312 C 309.453125 202.984375 309.402344 202.703125 308.816406 201.542969 L 308.167969 200.261719 L 308.578125 198.234375 C 308.804688 197.121094 309.011719 194.839844 309.042969 193.167969 C 309.097656 190.269531 309.136719 190.070312 309.835938 188.839844 C 310.242188 188.132812 310.851562 186.722656 311.191406 185.710938 C 312.304688 182.398438 311.917969 179.695312 309.964844 177.140625 C 309.628906 176.703125 309.203125 175.691406 309.019531 174.898438 C 308.308594 171.859375 305.3125 166.597656 303.453125 165.128906 C 301.027344 163.207031 297.632812 162.203125 293.53125 162.199219 C 290.796875 162.195312 284.882812 162.878906 281.984375 163.53125 C 280.992188 163.753906 279.855469 163.953125 279.460938 163.96875 L 278.738281 163.996094 L 278.792969 158.964844 C 278.835938 155.042969 278.984375 153.035156 279.457031 149.871094 C 280.132812 145.347656 280.253906 140.71875 279.78125 137.617188 C 279.625 136.589844 279.5625 135.6875 279.640625 135.609375 C 279.71875 135.53125 280.503906 135.449219 281.386719 135.429688 C 282.773438 135.394531 283.046875 135.460938 283.421875 135.921875 C 284.105469 136.765625 284.277344 138.539062 283.746094 139.273438 C 282.597656 140.867188 282.46875 141.335938 282.46875 143.882812 C 282.464844 146.304688 282.484375 146.382812 283.167969 147.066406 C 283.777344 147.675781 284.054688 147.769531 285.203125 147.769531 C 287.730469 147.769531 288.371094 147 288.628906 143.636719 C 288.816406 141.214844 288.511719 140.066406 287.5 139.34375 C 286.957031 138.960938 286.796875 138.65625 286.796875 138.027344 C 286.796875 136.855469 285.941406 134.742188 285.171875 134.007812 C 283.953125 132.84375 282.585938 132.617188 279.972656 133.140625 L 278.605469 133.417969 L 276.746094 131.613281 C 273.257812 128.222656 270.945312 127.5625 258.078125 126.257812 C 254.890625 125.9375 250.0625 125.5625 247.347656 125.425781 C 212.144531 123.660156 189.117188 122.980469 162.683594 122.929688 C 158.113281 122.917969 154.550781 122.914062 151.664062 122.921875 Z M 166.488281 126.0625 C 184.492188 126.09375 194.042969 126.210938 200.285156 126.476562 C 205.070312 126.679688 212.558594 126.960938 216.921875 127.101562 C 247.476562 128.082031 263.902344 129.191406 268.953125 130.625 C 271.117188 131.238281 271.269531 131.328125 273.371094 133.242188 C 274.570312 134.332031 275.742188 135.519531 275.976562 135.878906 C 276.421875 136.558594 277.109375 140.222656 276.839844 140.492188 C 276.757812 140.578125 275.363281 140.308594 273.742188 139.898438 C 270.46875 139.0625 264.980469 138.460938 263.164062 138.734375 C 260.929688 139.070312 259.175781 141.105469 258.285156 144.40625 C 257.835938 146.0625 257.136719 156.929688 257.269531 160.171875 C 257.355469 162.242188 257.476562 162.820312 258.09375 164.136719 C 258.941406 165.941406 260.03125 167.101562 261.539062 167.8125 C 262.457031 168.246094 263.03125 168.320312 265.269531 168.292969 C 268.730469 168.257812 271.332031 167.875 273.628906 167.0625 C 275.179688 166.519531 275.570312 166.457031 275.914062 166.707031 C 276.144531 166.875 276.710938 167.1875 277.175781 167.398438 C 277.976562 167.769531 278.140625 167.757812 280.542969 167.160156 C 284.425781 166.199219 289.878906 165.472656 293.289062 165.464844 C 298.605469 165.453125 300.789062 166.421875 303.046875 169.792969 C 304.355469 171.742188 305.585938 174.210938 305.894531 175.496094 C 306.035156 176.074219 305.910156 176.34375 305.101562 177.21875 C 302.613281 179.914062 301.328125 185.019531 302.308594 188.3125 C 302.832031 190.070312 303.601562 191.070312 305.023438 191.835938 C 306.09375 192.414062 306.28125 192.617188 306.28125 193.210938 C 306.28125 194.023438 305.828125 198.625 305.675781 199.34375 C 305.578125 199.8125 305.410156 199.832031 301.175781 199.824219 C 297.246094 199.816406 296.679688 199.867188 295.832031 200.296875 C 294.15625 201.144531 293.972656 201.609375 293.707031 205.714844 C 293.4375 209.894531 293.609375 210.890625 294.777344 211.960938 L 295.507812 212.625 L 294.726562 212.796875 C 293.957031 212.964844 288.988281 212.773438 287.707031 212.527344 C 287.175781 212.421875 287.023438 212.234375 286.902344 211.515625 C 286.328125 208.109375 285.054688 204.9375 283.171875 202.214844 C 277.734375 194.355469 267.292969 191.257812 258.417969 194.871094 C 254.617188 196.414062 252.269531 198.148438 249.695312 201.3125 C 248.019531 203.371094 247.089844 205.066406 246.285156 207.53125 L 245.648438 209.480469 L 226.835938 209.378906 C 216.15625 209.324219 203.5 209.398438 197.558594 209.554688 C 183.988281 209.90625 171.417969 210.1875 155.46875 210.488281 C 148.390625 210.625 142.003906 210.789062 141.273438 210.851562 C 140.546875 210.917969 139.816406 210.890625 139.652344 210.789062 C 139.488281 210.6875 139.183594 210.015625 138.976562 209.296875 C 136.574219 200.941406 130.390625 195.117188 122.308594 193.585938 C 119.980469 193.144531 116.25 193.089844 114.21875 193.464844 C 110.316406 194.183594 105.703125 196.683594 102.863281 199.617188 C 99.65625 202.925781 97.679688 206.960938 96.902344 211.773438 L 96.753906 212.675781 L 95.480469 212.675781 C 94.777344 212.675781 93.5625 212.726562 92.785156 212.792969 C 92.003906 212.855469 91.148438 212.820312 90.882812 212.707031 C 90.453125 212.523438 90.503906 212.453125 91.355469 212.046875 C 91.882812 211.796875 92.570312 211.214844 92.882812 210.75 C 93.445312 209.925781 93.453125 209.828125 93.359375 205.464844 C 93.296875 202.476562 93.164062 200.832031 92.957031 200.453125 C 92.398438 199.433594 91.355469 199.214844 87.058594 199.214844 C 84.5 199.214844 83.039062 199.121094 82.9375 198.957031 C 82.847656 198.8125 82.726562 194.945312 82.667969 190.363281 C 82.574219 183.484375 82.433594 180.828125 81.859375 175.175781 C 80.566406 162.453125 80.355469 159.089844 80.496094 153.660156 C 80.753906 143.679688 82.152344 138.898438 85.773438 135.585938 C 87.480469 134.019531 91.394531 132.234375 97.136719 130.394531 C 103.605469 128.320312 107.644531 127.789062 121.3125 127.222656 C 126.140625 127.019531 132.632812 126.667969 135.742188 126.4375 C 140.671875 126.070312 144.605469 126.019531 166.488281 126.0625 Z M 199.527344 137.5 C 198.5625 137.523438 197.507812 137.578125 196.355469 137.652344 C 191.328125 137.988281 190.402344 138.3125 189.296875 140.125 C 188.621094 141.226562 188.601562 141.375 188.375 146.136719 C 188.007812 153.921875 188.445312 159.210938 189.621094 161.113281 C 190.402344 162.375 191.882812 162.953125 194.882812 163.167969 C 196.289062 163.265625 199.332031 163.328125 201.648438 163.300781 C 205.332031 163.257812 205.992188 163.191406 206.941406 162.757812 C 209.296875 161.671875 209.734375 160.621094 210.179688 154.917969 C 210.578125 149.84375 210.367188 144.425781 209.679688 141.980469 C 208.707031 138.511719 206.289062 137.332031 199.527344 137.5 Z M 174.675781 137.84375 C 171.484375 137.820312 168.042969 137.875 166.472656 138.019531 C 162.203125 138.421875 161.535156 140.292969 161.984375 150.65625 C 162.484375 162.265625 162.921875 163.40625 167.082031 163.886719 C 169.460938 164.160156 176.734375 163.964844 179.542969 163.550781 C 184.921875 162.761719 185.144531 162.234375 184.988281 150.699219 C 184.898438 143.957031 184.820312 142.640625 184.441406 141.425781 C 183.910156 139.710938 182.816406 138.53125 181.386719 138.125 C 180.8125 137.964844 177.871094 137.863281 174.675781 137.84375 Z M 150.734375 137.996094 C 149.414062 137.949219 147.90625 137.953125 146.207031 138.015625 C 140.816406 138.210938 139.160156 138.476562 137.953125 139.351562 C 136.660156 140.289062 136.296875 141.230469 136.105469 144.164062 C 135.878906 147.621094 136.382812 158.589844 136.84375 160.21875 C 137.296875 161.8125 138.5625 163.265625 139.78125 163.589844 C 141.03125 163.921875 153.933594 163.941406 155.460938 163.613281 C 158.871094 162.882812 159.488281 160.460938 159.078125 149.386719 C 158.832031 142.738281 158.621094 141.253906 157.75 139.921875 C 156.996094 138.773438 154.703125 138.136719 150.734375 137.996094 Z M 124.382812 139.867188 C 121.210938 139.933594 117.421875 140.167969 114.386719 140.539062 C 111.929688 140.835938 111.136719 141.347656 110.277344 143.179688 C 109.679688 144.453125 109.644531 144.722656 109.652344 148.25 C 109.660156 151.867188 109.742188 152.621094 110.75 158.226562 C 111.957031 164.972656 112.550781 166.058594 115.265625 166.515625 C 116.851562 166.785156 117.691406 166.785156 120.949219 166.515625 C 124.902344 166.191406 129.171875 165.390625 130.328125 164.757812 C 130.925781 164.429688 131.507812 163.835938 131.871094 163.175781 C 132.5625 161.921875 132.707031 160.511719 133.097656 151.0625 C 133.332031 145.398438 133.320312 144.464844 132.988281 143.328125 C 132.570312 141.890625 131.710938 140.726562 130.675781 140.191406 C 130.105469 139.894531 127.554688 139.796875 124.382812 139.867188 Z M 197.789062 140.359375 C 205.167969 140.238281 206.359375 140.601562 206.902344 143.136719 C 207.378906 145.351562 207.503906 150.007812 207.191406 153.949219 C 206.796875 158.980469 206.65625 159.492188 205.574219 159.941406 C 204.488281 160.398438 200.730469 160.539062 196.957031 160.265625 C 192.832031 159.96875 192.578125 159.902344 192.105469 158.996094 C 191.222656 157.304688 191.46875 141.734375 192.394531 140.808594 C 192.699219 140.503906 193.660156 140.425781 197.789062 140.359375 Z M 169.035156 140.890625 C 173.074219 140.941406 180.117188 141.222656 180.558594 141.402344 C 180.800781 141.503906 181.105469 141.859375 181.230469 142.199219 C 181.566406 143.074219 181.984375 151.765625 181.886719 155.835938 C 181.785156 160.136719 181.808594 160.101562 178.558594 160.609375 C 174.09375 161.300781 167.085938 161.273438 166.226562 160.558594 C 165.726562 160.140625 165.386719 157.917969 165.070312 152.9375 C 164.699219 147.160156 164.6875 142.242188 165.042969 141.59375 C 165.242188 141.230469 165.640625 141.023438 166.351562 140.925781 C 166.675781 140.878906 167.6875 140.871094 169.035156 140.890625 Z M 152.8125 141.210938 C 154.785156 141.261719 155.230469 141.503906 155.5 142.1875 C 155.640625 142.546875 155.851562 145.65625 155.972656 149.09375 C 156.207031 155.769531 155.984375 159.589844 155.320312 160.269531 C 155.027344 160.570312 153.792969 160.644531 147.902344 160.710938 C 141.101562 160.792969 140.820312 160.777344 140.355469 160.3125 C 139.675781 159.632812 139.535156 157.84375 139.5 149.554688 C 139.476562 143.382812 139.519531 142.453125 139.855469 142.117188 C 140.304688 141.664062 144.433594 141.308594 150.285156 141.21875 C 151.332031 141.199219 152.15625 141.195312 152.8125 141.210938 Z M 265.828125 141.28125 C 268.425781 141.28125 271.378906 141.65625 274.890625 142.421875 L 276.8125 142.84375 L 276.886719 143.742188 C 276.929688 144.238281 276.628906 146.671875 276.222656 149.152344 C 275.671875 152.496094 275.433594 154.894531 275.304688 158.453125 L 275.128906 163.246094 L 273.207031 163.929688 C 272.148438 164.304688 270.253906 164.769531 268.996094 164.964844 C 267.742188 165.15625 265.890625 165.316406 264.882812 165.316406 C 262.625 165.320312 261.703125 164.800781 260.820312 163.035156 C 260.035156 161.46875 259.957031 159.246094 260.417969 151.257812 C 260.800781 144.566406 261.140625 143.0625 262.535156 141.890625 C 263.214844 141.320312 263.429688 141.28125 265.828125 141.28125 Z M 101.523438 142.113281 C 100.570312 142.070312 99.390625 142.167969 97.226562 142.449219 C 95.191406 142.710938 92.664062 142.992188 91.605469 143.078125 C 87.410156 143.410156 85.855469 143.964844 85.0625 145.417969 C 84.667969 146.136719 84.632812 146.925781 84.65625 154.019531 C 84.667969 158.371094 84.800781 162.734375 84.957031 163.863281 C 85.355469 166.816406 86.332031 168.074219 88.71875 168.71875 C 89.601562 168.953125 98.601562 168.765625 101.15625 168.453125 C 104.886719 168 106.054688 167.296875 106.773438 165.0625 C 107.136719 163.949219 107.210938 162.507812 107.300781 155.210938 C 107.371094 149.449219 107.320312 146.347656 107.140625 145.6875 C 106.613281 143.722656 105.128906 142.625 102.425781 142.207031 C 102.132812 142.160156 101.839844 142.128906 101.523438 142.113281 Z M 225.515625 142.136719 C 223.851562 142.171875 223.066406 142.324219 222.574219 142.605469 C 221.578125 143.179688 220.757812 144.6875 220.417969 146.570312 C 219.867188 149.625 219.695312 155.820312 219.699219 172.050781 C 219.703125 189.082031 219.90625 196.351562 220.40625 197.28125 C 220.546875 197.546875 220.957031 197.921875 221.316406 198.117188 C 221.859375 198.414062 222.785156 198.453125 226.664062 198.339844 C 234.761719 198.109375 235.769531 197.902344 236.78125 196.253906 C 237.808594 194.582031 238.109375 192.285156 238.453125 183.527344 C 238.59375 179.925781 238.863281 174.976562 239.046875 172.53125 C 239.777344 162.839844 239.984375 156.238281 239.753906 149.878906 C 239.539062 143.917969 239.511719 143.675781 238.984375 143.152344 C 238.472656 142.640625 238.148438 142.589844 233.695312 142.378906 C 229.710938 142.1875 227.175781 142.101562 225.515625 142.136719 Z M 129.1875 143.15625 L 129.578125 143.714844 C 130.050781 144.390625 130.0625 145.074219 129.722656 153.660156 C 129.582031 157.230469 129.335938 160.582031 129.175781 161.113281 C 128.816406 162.3125 128.347656 162.484375 124.078125 162.996094 C 119.902344 163.492188 116.261719 163.664062 115.59375 163.390625 C 114.890625 163.101562 114.777344 162.773438 113.894531 158.46875 C 112.15625 149.992188 111.957031 144.441406 113.351562 143.578125 C 113.496094 143.488281 117.121094 143.355469 121.402344 143.285156 Z M 202.476562 144.488281 C 201.925781 144.277344 196.953125 149.070312 196.238281 150.5 C 195.90625 151.164062 195.636719 151.851562 195.636719 152.023438 C 195.636719 152.460938 196.117188 152.414062 196.898438 151.898438 C 197.628906 151.417969 201.246094 147.578125 202.035156 146.449219 C 202.714844 145.46875 202.902344 144.648438 202.476562 144.488281 Z M 226.128906 145.214844 C 226.632812 145.230469 227.246094 145.277344 227.988281 145.355469 C 229.441406 145.507812 231.90625 145.699219 233.464844 145.777344 C 236.238281 145.917969 236.296875 145.933594 236.445312 146.527344 C 236.644531 147.3125 236.347656 165.085938 236.058594 169.765625 C 235.9375 171.75 235.613281 177.320312 235.339844 182.144531 C 234.820312 191.277344 234.546875 193.820312 234 194.566406 C 233.707031 194.96875 233.1875 195.011719 228.03125 195.078125 L 222.382812 195.152344 L 222.484375 178.613281 C 222.609375 157.558594 222.984375 148.292969 223.789062 146.179688 C 224.0625 145.453125 224.617188 145.175781 226.128906 145.214844 Z M 175.515625 145.394531 C 175.21875 145.28125 174.550781 145.527344 173.945312 146.019531 C 170.902344 148.511719 168.230469 151.003906 167.851562 151.710938 C 167.476562 152.410156 167.453125 152.601562 167.722656 152.925781 C 168.351562 153.683594 169.445312 153.003906 172.195312 150.136719 C 174.109375 148.144531 175.671875 146.117188 175.671875 145.625 C 175.671875 145.503906 175.613281 145.429688 175.515625 145.394531 Z M 150.246094 145.421875 C 150.027344 145.375 149.699219 145.5 149.09375 145.847656 C 147.632812 146.683594 143.679688 150.109375 143.679688 150.539062 C 143.679688 151.382812 145.625 150.519531 148.550781 148.378906 C 150.433594 147 151.023438 146.113281 150.433594 145.53125 C 150.378906 145.476562 150.316406 145.4375 150.246094 145.421875 Z M 101.433594 145.449219 C 102.503906 145.488281 103.117188 145.691406 103.492188 146.066406 C 103.863281 146.4375 103.933594 147.183594 104.058594 152.238281 C 104.214844 158.386719 103.96875 163.925781 103.519531 164.46875 C 103.140625 164.921875 100.738281 165.28125 96.175781 165.5625 C 91.214844 165.867188 89.183594 165.757812 88.578125 165.15625 C 88.054688 164.632812 87.390625 156.546875 87.394531 150.753906 C 87.398438 146.179688 87.398438 146.179688 90.488281 146.269531 C 91.632812 146.304688 94.410156 146.097656 96.65625 145.808594 C 98.847656 145.53125 100.367188 145.410156 101.433594 145.449219 Z M 271.277344 146.375 C 270.550781 146.324219 268.765625 147.769531 266.050781 150.617188 C 264.214844 152.542969 263.902344 153.160156 264.476562 153.730469 C 265.019531 154.277344 265.71875 154.019531 266.789062 152.878906 C 270.375 149.054688 271.644531 147.5 271.644531 146.929688 C 271.644531 146.578125 271.519531 146.394531 271.277344 146.375 Z M 122.429688 148.152344 C 122.015625 148.179688 121.105469 148.671875 119.730469 149.71875 C 117.078125 151.738281 116.261719 152.613281 116.261719 153.4375 C 116.261719 154.683594 117.667969 153.992188 120.257812 151.476562 C 122.441406 149.355469 123.121094 148.105469 122.429688 148.152344 Z M 152.859375 148.773438 C 152.125 148.667969 150.84375 149.539062 148.707031 151.59375 C 147.183594 153.054688 147.003906 153.316406 147.285156 153.65625 C 147.460938 153.867188 147.777344 153.976562 147.988281 153.898438 C 148.988281 153.527344 151.089844 152.097656 152.273438 150.984375 C 153.675781 149.667969 153.875 148.917969 152.859375 148.773438 Z M 202.199219 150.195312 C 201.644531 150.226562 200.796875 150.867188 199.542969 152.1875 C 197.929688 153.886719 197.296875 155.082031 197.683594 155.707031 C 198 156.222656 198.921875 155.632812 200.746094 153.753906 C 202.589844 151.851562 203.148438 150.859375 202.660156 150.367188 C 202.535156 150.242188 202.382812 150.1875 202.199219 150.195312 Z M 97.09375 150.648438 C 96.363281 150.769531 94.914062 151.800781 93.117188 153.558594 C 91.371094 155.269531 90.808594 156.261719 91.269531 156.8125 C 91.421875 156.996094 91.714844 157.144531 91.917969 157.144531 C 92.417969 157.144531 97.375 152.128906 97.550781 151.445312 C 97.710938 150.828125 97.53125 150.574219 97.09375 150.648438 Z M 233.304688 150.65625 C 232.671875 150.65625 232.207031 150.90625 231.238281 151.777344 C 229.871094 153.007812 227.035156 157.015625 227.269531 157.390625 C 227.691406 158.078125 228.566406 157.496094 231.28125 154.734375 C 233.359375 152.617188 234.121094 151.683594 234.121094 151.25 C 234.121094 150.734375 234.011719 150.65625 233.304688 150.65625 Z M 271.519531 150.90625 C 271.101562 150.925781 270.296875 151.605469 268.984375 153 C 266.144531 156.011719 264.714844 158.3125 265.308594 158.910156 C 265.902344 159.5 267.234375 158.40625 269.644531 155.34375 C 271.285156 153.253906 271.882812 152.246094 271.882812 151.558594 C 271.882812 151.113281 271.769531 150.890625 271.519531 150.90625 Z M 174.8125 151.429688 C 174.082031 151.53125 172.363281 152.753906 170.289062 154.707031 C 169.316406 155.621094 168.324219 157.457031 168.578125 157.871094 C 168.929688 158.441406 169.804688 158.011719 171.386719 156.484375 C 173.222656 154.714844 175.191406 152.246094 175.191406 151.710938 C 175.191406 151.484375 175.058594 151.394531 174.8125 151.429688 Z M 123.003906 153.78125 C 122.664062 153.78125 118.65625 156.378906 117.882812 157.097656 C 117.261719 157.679688 117.023438 158.546875 117.382812 158.910156 C 117.957031 159.484375 119.929688 158.28125 121.898438 156.15625 C 123.109375 154.851562 123.605469 153.78125 123.003906 153.78125 Z M 97.554688 156.171875 C 97.175781 156.042969 96.082031 156.667969 94.539062 157.984375 C 92.671875 159.578125 92.054688 160.597656 92.714844 161.011719 C 92.898438 161.125 93.265625 161.15625 93.53125 161.082031 C 94.1875 160.890625 96.878906 158.226562 97.410156 157.242188 C 97.753906 156.601562 97.78125 156.25 97.554688 156.171875 Z M 232.742188 161.519531 C 232.585938 161.558594 232.382812 161.640625 232.132812 161.757812 C 230.050781 162.753906 224.980469 168.675781 224.980469 170.113281 C 224.980469 170.851562 225.988281 170.019531 229.042969 166.761719 C 232.640625 162.925781 233.832031 161.242188 232.742188 161.519531 Z M 185.339844 169.1875 C 180.132812 169.210938 174.835938 169.328125 170.5 169.527344 C 166.265625 169.726562 156.308594 169.992188 148.371094 170.121094 C 135.957031 170.320312 121.285156 170.925781 116.378906 171.445312 C 114.1875 171.675781 99.378906 172.742188 94.734375 173.003906 C 89.347656 173.304688 88.746094 173.386719 88.34375 173.871094 C 87.90625 174.394531 88.472656 174.890625 89.816406 175.152344 C 91.972656 175.574219 99.871094 175.367188 111.328125 174.582031 C 114.109375 174.390625 118.601562 174.121094 121.3125 173.980469 C 124.023438 173.839844 126.933594 173.667969 127.777344 173.597656 C 128.621094 173.53125 136.628906 173.367188 145.574219 173.242188 C 154.523438 173.117188 165.195312 172.855469 169.296875 172.65625 C 177.972656 172.242188 193.054688 172.1875 202.007812 172.535156 C 213.25 172.976562 215.222656 172.960938 215.8125 172.433594 C 216.488281 171.824219 216.457031 170.988281 215.734375 170.421875 C 215.21875 170.015625 214.554688 169.941406 210.023438 169.796875 C 207.203125 169.703125 202.515625 169.527344 199.605469 169.40625 C 195.652344 169.238281 190.542969 169.167969 185.339844 169.191406 Z M 232.539062 169.886719 C 231.859375 169.886719 231.273438 170.351562 230.199219 171.75 C 228.914062 173.429688 228.519531 174.148438 228.710938 174.457031 C 229.003906 174.929688 229.746094 174.671875 230.824219 173.726562 C 231.429688 173.191406 232.148438 172.394531 232.421875 171.953125 C 233.019531 170.984375 233.085938 169.886719 232.539062 169.886719 Z M 198.875 178.878906 C 195.90625 178.882812 192.535156 178.929688 188.78125 179.015625 C 182.5625 179.160156 172.28125 179.382812 165.929688 179.515625 C 159.578125 179.644531 151.300781 179.859375 147.53125 179.988281 C 141.355469 180.203125 137.714844 180.378906 122.753906 181.183594 C 120.308594 181.316406 115.492188 181.53125 112.050781 181.664062 C 91.980469 182.429688 89.480469 182.691406 90.515625 183.9375 C 90.683594 184.144531 91.164062 184.410156 91.574219 184.527344 C 93.363281 185.046875 110.574219 184.726562 129.609375 183.824219 C 155.085938 182.613281 188.8125 181.929688 205.515625 182.285156 L 213.113281 182.445312 L 213.632812 181.78125 C 214.292969 180.945312 214.289062 180.644531 213.605469 179.851562 L 213.054688 179.210938 L 206.570312 178.984375 C 204.417969 178.90625 201.847656 178.871094 198.875 178.878906 Z M 267.660156 197.597656 C 269.738281 197.707031 271.332031 198.179688 273.445312 199.207031 C 279.382812 202.101562 282.957031 207.925781 282.945312 214.671875 C 282.933594 219.390625 280.613281 224.253906 276.890625 227.355469 C 275.140625 228.816406 271.644531 230.546875 269.71875 230.90625 C 262.597656 232.234375 256.332031 229.777344 252.246094 224.054688 C 249.898438 220.769531 248.726562 216.269531 249.246094 212.546875 C 249.8125 208.523438 251.390625 205.261719 254.082031 202.578125 C 257.355469 199.3125 260.800781 197.796875 265.390625 197.597656 C 266.226562 197.5625 266.96875 197.558594 267.664062 197.597656 Z M 118.03125 198.582031 C 124.84375 198.605469 130.648438 202.667969 133.167969 209.429688 C 134.113281 211.964844 134.335938 215.636719 133.707031 218.269531 C 132.332031 224.007812 127.667969 228.773438 122.152344 230.078125 C 117.695312 231.136719 113.484375 230.460938 109.605469 228.070312 C 106.527344 226.171875 104.199219 223.292969 102.835938 219.703125 C 102.285156 218.257812 102.21875 217.722656 102.203125 214.71875 C 102.191406 211.878906 102.273438 211.089844 102.722656 209.667969 C 104.511719 204.03125 109.378906 199.75 115.058594 198.820312 C 116.066406 198.65625 117.058594 198.578125 118.03125 198.582031 Z M 303.476562 202.675781 C 304.25 202.683594 304.84375 202.710938 305.078125 202.765625 C 305.863281 202.945312 305.921875 203.023438 305.992188 204 C 306.074219 205.089844 305.453125 208.605469 305.050781 209.355469 C 304.800781 209.824219 303.710938 209.859375 298.941406 209.5625 L 296.777344 209.429688 L 296.777344 206.519531 C 296.777344 204.519531 296.875 203.496094 297.085938 203.246094 C 297.320312 202.960938 298.167969 202.84375 300.8125 202.726562 C 301.753906 202.683594 302.703125 202.667969 303.476562 202.675781 Z M 118.601562 204.597656 C 116.925781 204.539062 115.210938 204.898438 113.597656 205.710938 C 112.804688 206.109375 111.742188 206.8125 111.238281 207.269531 C 110.136719 208.261719 108.976562 210.386719 108.5625 212.15625 C 108.15625 213.898438 108.371094 216.785156 109.03125 218.511719 C 110.066406 221.203125 113.378906 223.949219 116.214844 224.460938 C 119.785156 225.105469 124.179688 223.414062 126.25 220.59375 C 127.617188 218.734375 128.144531 217.015625 128.125 214.476562 C 128.101562 211.796875 127.550781 210.21875 125.941406 208.25 C 124.074219 205.957031 121.394531 204.695312 118.601562 204.59375 Z M 266.230469 204.871094 C 263.351562 204.878906 261.71875 205.421875 259.996094 206.941406 C 257.539062 209.101562 256.375 211.800781 256.539062 214.957031 C 256.742188 218.921875 259.4375 222.378906 263.292969 223.636719 C 264.78125 224.121094 268.050781 223.933594 269.785156 223.265625 C 271.726562 222.519531 273.816406 220.535156 274.824219 218.488281 C 275.5625 216.992188 275.613281 216.734375 275.613281 214.355469 C 275.613281 211.980469 275.5625 211.722656 274.824219 210.222656 C 273.886719 208.320312 271.917969 206.40625 269.960938 205.484375 C 268.804688 204.941406 268.328125 204.863281 266.230469 204.871094 Z M 118.289062 207.628906 C 123.085938 207.636719 126.644531 212.976562 124.730469 217.300781 C 124.082031 218.761719 122.394531 220.574219 121.171875 221.117188 C 118.371094 222.363281 114.296875 221.40625 112.570312 219.101562 C 110.203125 215.945312 110.480469 212.417969 113.308594 209.59375 C 114.6875 208.214844 116.179688 207.625 118.289062 207.628906 Z M 265.167969 208.152344 C 265.632812 208.113281 266.140625 208.121094 266.707031 208.167969 C 270.140625 208.441406 272.332031 210.890625 272.351562 214.476562 C 272.363281 216.871094 270.996094 219.089844 268.8125 220.21875 C 267.929688 220.675781 265.722656 220.871094 264.597656 220.59375 C 262.476562 220.070312 260.867188 218.644531 260.101562 216.601562 C 259.164062 214.09375 259.691406 211.789062 261.632812 209.894531 C 262.761719 208.792969 263.773438 208.269531 265.167969 208.152344 Z M 118.652344 209.632812 C 117.976562 209.558594 117.292969 209.648438 116.542969 209.894531 C 113.296875 210.972656 112.078125 215.140625 114.253906 217.722656 C 114.871094 218.457031 115.835938 219.0625 116.980469 219.433594 C 117.933594 219.742188 119.617188 219.457031 120.742188 218.796875 C 123.90625 216.945312 123.882812 212.238281 120.703125 210.375 C 119.988281 209.957031 119.324219 209.710938 118.652344 209.632812 Z M 265.789062 210.539062 C 265.226562 210.554688 264.667969 210.726562 264.089844 211.054688 C 262.945312 211.714844 262.261719 212.925781 262.261719 214.304688 C 262.261719 215.644531 262.769531 216.597656 263.882812 217.355469 C 265.976562 218.777344 268.921875 217.742188 269.683594 215.320312 C 270.214844 213.621094 269.363281 211.921875 267.503906 210.96875 C 266.917969 210.667969 266.351562 210.523438 265.789062 210.539062 Z M 265.789062 210.539062 " fill-opacity="1" fill-rule="nonzero"/></g></svg>