<svg xmlns="http://www.w3.org/2000/svg" xmlns:xlink="http://www.w3.org/1999/xlink" width="500" zoomAndPan="magnify" viewBox="0 0 375 374.999991" height="500" preserveAspectRatio="xMidYMid meet" version="1.0"><defs><filter x="0%" y="0%" width="100%" height="100%" id="7337bfadaf"><feColorMatrix values="0 0 0 0 1 0 0 0 0 1 0 0 0 0 1 0 0 0 1 0" color-interpolation-filters="sRGB"/></filter><mask id="d9bcb0c26a"><g filter="url(#7337bfadaf)"><rect x="-37.5" width="450" fill="#000000" y="-37.499999" height="449.999989" fill-opacity="0.31"/></g></mask><clipPath id="0584f69dee"><path d="M 0.5 2 L 300.5 2 L 300.5 241 L 0.5 241 Z M 0.5 2 " clip-rule="nonzero"/></clipPath><clipPath id="c1b42615fe"><rect x="0" width="301" y="0" height="243"/></clipPath><clipPath id="af72a99ad1"><path d="M 75 119 L 292 119 L 292 290 L 75 290 Z M 75 119 " clip-rule="nonzero"/></clipPath><clipPath id="ad134e6d00"><path d="M 215.507812 27.414062 L 350.96875 220.054688 L 166.917969 349.476562 L 31.457031 156.832031 Z M 215.507812 27.414062 " clip-rule="nonzero"/></clipPath><clipPath id="6b64e3d063"><path d="M 215.507812 27.414062 L 350.96875 220.054688 L 166.917969 349.476562 L 31.457031 156.832031 Z M 215.507812 27.414062 " clip-rule="nonzero"/></clipPath><clipPath id="e9f9e89262"><path d="M 215.507812 27.414062 L 350.96875 220.054688 L 166.917969 349.476562 L 31.457031 156.832031 Z M 215.507812 27.414062 " clip-rule="nonzero"/></clipPath><clipPath id="9312b12c38"><path d="M 212 224 L 227 224 L 227 249 L 212 249 Z M 212 224 " clip-rule="nonzero"/></clipPath><clipPath id="24682acb15"><path d="M 215.507812 27.414062 L 350.96875 220.054688 L 166.917969 349.476562 L 31.457031 156.832031 Z M 215.507812 27.414062 " clip-rule="nonzero"/></clipPath><clipPath id="616ec40199"><path d="M 215.507812 27.414062 L 350.96875 220.054688 L 166.917969 349.476562 L 31.457031 156.832031 Z M 215.507812 27.414062 " clip-rule="nonzero"/></clipPath><clipPath id="fb95d1441c"><path d="M 215.507812 27.414062 L 350.96875 220.054688 L 166.917969 349.476562 L 31.457031 156.832031 Z M 215.507812 27.414062 " clip-rule="nonzero"/></clipPath><clipPath id="8b23a55984"><path d="M 224 193 L 239 193 L 239 217 L 224 217 Z M 224 193 " clip-rule="nonzero"/></clipPath><clipPath id="ec5fe4bcea"><path d="M 215.507812 27.414062 L 350.96875 220.054688 L 166.917969 349.476562 L 31.457031 156.832031 Z M 215.507812 27.414062 " clip-rule="nonzero"/></clipPath><clipPath id="57f9faa3ca"><path d="M 215.507812 27.414062 L 350.96875 220.054688 L 166.917969 349.476562 L 31.457031 156.832031 Z M 215.507812 27.414062 " clip-rule="nonzero"/></clipPath><clipPath id="1d0ff8af97"><path d="M 215.507812 27.414062 L 350.96875 220.054688 L 166.917969 349.476562 L 31.457031 156.832031 Z M 215.507812 27.414062 " clip-rule="nonzero"/></clipPath><clipPath id="2282bbaacc"><path d="M 139 106 L 276 106 L 276 170 L 139 170 Z M 139 106 " clip-rule="nonzero"/></clipPath><clipPath id="cf8f060fe3"><path d="M 215.507812 27.414062 L 350.96875 220.054688 L 166.917969 349.476562 L 31.457031 156.832031 Z M 215.507812 27.414062 " clip-rule="nonzero"/></clipPath><clipPath id="3092c53687"><path d="M 215.507812 27.414062 L 350.96875 220.054688 L 166.917969 349.476562 L 31.457031 156.832031 Z M 215.507812 27.414062 " clip-rule="nonzero"/></clipPath><clipPath id="d80ab050d9"><path d="M 215.507812 27.414062 L 350.96875 220.054688 L 166.917969 349.476562 L 31.457031 156.832031 Z M 215.507812 27.414062 " clip-rule="nonzero"/></clipPath><clipPath id="5ca64cc9bb"><path d="M 80 118 L 108 118 L 108 163 L 80 163 Z M 80 118 " clip-rule="nonzero"/></clipPath><clipPath id="2b6d124f8f"><path d="M 215.507812 27.414062 L 350.96875 220.054688 L 166.917969 349.476562 L 31.457031 156.832031 Z M 215.507812 27.414062 " clip-rule="nonzero"/></clipPath><clipPath id="32e86717bf"><path d="M 215.507812 27.414062 L 350.96875 220.054688 L 166.917969 349.476562 L 31.457031 156.832031 Z M 215.507812 27.414062 " clip-rule="nonzero"/></clipPath><clipPath id="3ff1fe8954"><path d="M 215.507812 27.414062 L 350.96875 220.054688 L 166.917969 349.476562 L 31.457031 156.832031 Z M 215.507812 27.414062 " clip-rule="nonzero"/></clipPath><clipPath id="f8300252a8"><path d="M 219 134 L 229 134 L 229 151 L 219 151 Z M 219 134 " clip-rule="nonzero"/></clipPath><clipPath id="10ae13a366"><path d="M 215.507812 27.414062 L 350.96875 220.054688 L 166.917969 349.476562 L 31.457031 156.832031 Z M 215.507812 27.414062 " clip-rule="nonzero"/></clipPath><clipPath id="375e30fba0"><path d="M 215.507812 27.414062 L 350.96875 220.054688 L 166.917969 349.476562 L 31.457031 156.832031 Z M 215.507812 27.414062 " clip-rule="nonzero"/></clipPath><clipPath id="293fd41a0d"><path d="M 215.507812 27.414062 L 350.96875 220.054688 L 166.917969 349.476562 L 31.457031 156.832031 Z M 215.507812 27.414062 " clip-rule="nonzero"/></clipPath></defs><g mask="url(#d9bcb0c26a)"><g transform="matrix(1, 0, 0, 1, 37, 66)"><g clip-path="url(#c1b42615fe)"><g clip-path="url(#0584f69dee)"><path fill="#b9d5f1" d="M 7.144531 48.585938 C 2.160156 61.5625 1.105469 75.695312 0.867188 89.597656 C 0.5 110.933594 2.109375 132.941406 11.5 152.097656 C 19.480469 168.371094 32.589844 181.554688 46.480469 193.195312 C 61.089844 205.4375 76.917969 216.386719 94.292969 224.210938 C 133.496094 241.871094 178.28125 242.664062 220.960938 237.515625 C 241.878906 234.992188 263.984375 230.449219 279.023438 215.691406 C 298.285156 196.792969 300.5 166.925781 300.390625 139.933594 C 300.28125 111.804688 298.269531 81.722656 281.289062 59.304688 C 260.695312 32.121094 224.105469 23.695312 190.484375 18.050781 C 153.5 11.84375 115.234375 4.390625 77.773438 2.171875 C 48.230469 0.425781 17.644531 21.234375 7.144531 48.585938 Z M 7.144531 48.585938 " fill-opacity="1" fill-rule="nonzero"/></g></g></g></g><g clip-path="url(#af72a99ad1)"><g clip-path="url(#ad134e6d00)"><g clip-path="url(#6b64e3d063)"><g clip-path="url(#e9f9e89262)"><path fill="#000000" d="M 93.898438 183.273438 C 91.222656 182.21875 88.203125 183.53125 87.148438 186.203125 L 75.589844 215.535156 C 75.085938 216.820312 75.109375 218.253906 75.660156 219.519531 C 75.804688 219.847656 75.976562 220.152344 76.175781 220.441406 C 76.757812 221.265625 77.570312 221.914062 78.523438 222.289062 L 247.996094 289.21875 C 249.28125 289.726562 250.714844 289.703125 251.980469 289.152344 C 253.246094 288.601562 254.242188 287.574219 254.746094 286.289062 L 266.304688 256.953125 C 266.8125 255.667969 266.785156 254.234375 266.234375 252.96875 C 265.683594 251.707031 264.65625 250.707031 263.371094 250.199219 C 260.9375 249.238281 258.863281 247.605469 257.367188 245.480469 C 254.773438 241.789062 254.210938 237.089844 255.859375 232.90625 C 258.550781 226.070312 266.304688 222.703125 273.140625 225.402344 C 274.425781 225.910156 275.855469 225.886719 277.125 225.339844 C 278.390625 224.789062 279.382812 223.757812 279.890625 222.476562 L 291.449219 193.140625 C 292.5 190.464844 291.191406 187.441406 288.511719 186.386719 L 119.042969 119.457031 C 116.367188 118.402344 113.34375 119.714844 112.292969 122.386719 L 100.734375 151.71875 C 100.226562 153.003906 100.253906 154.4375 100.804688 155.707031 C 101.355469 156.96875 102.382812 157.96875 103.667969 158.476562 C 106.101562 159.4375 108.179688 161.070312 109.671875 163.195312 C 112.269531 166.886719 112.832031 171.585938 111.183594 175.769531 C 108.488281 182.605469 100.734375 185.972656 93.898438 183.273438 Z M 118.183594 157.210938 C 116.527344 154.851562 114.472656 152.835938 112.117188 151.238281 L 120.070312 131.054688 L 238.183594 177.699219 L 237.226562 180.121094 C 236.726562 181.390625 236.9375 182.761719 237.667969 183.800781 C 238.09375 184.40625 238.691406 184.894531 239.429688 185.1875 C 241.433594 185.976562 243.699219 184.992188 244.492188 182.988281 L 245.445312 180.566406 L 279.855469 194.15625 L 271.902344 214.34375 C 261.175781 212.664062 250.316406 218.566406 246.171875 229.078125 C 243.234375 236.535156 244.238281 244.902344 248.855469 251.464844 C 250.511719 253.820312 252.566406 255.835938 254.921875 257.4375 L 246.96875 277.621094 L 212.558594 264.03125 L 213.511719 261.613281 C 214.304688 259.605469 213.316406 257.34375 211.3125 256.542969 C 209.304688 255.753906 207.039062 256.738281 206.25 258.742188 L 205.296875 261.164062 L 87.183594 214.515625 L 95.136719 194.332031 C 105.863281 196.011719 116.722656 190.105469 120.867188 179.59375 C 123.804688 172.140625 122.800781 163.773438 118.183594 157.210938 Z M 118.183594 157.210938 " fill-opacity="1" fill-rule="nonzero"/></g></g></g></g><g clip-path="url(#9312b12c38)"><g clip-path="url(#24682acb15)"><g clip-path="url(#616ec40199)"><g clip-path="url(#fb95d1441c)"><path fill="#000000" d="M 212.445312 243.019531 C 211.945312 244.285156 212.160156 245.660156 212.886719 246.699219 C 213.3125 247.300781 213.914062 247.792969 214.648438 248.085938 C 216.652344 248.875 218.921875 247.890625 219.710938 245.886719 L 225.90625 230.160156 C 226.695312 228.15625 225.703125 225.890625 223.703125 225.09375 C 221.699219 224.304688 219.429688 225.289062 218.640625 227.292969 Z M 212.445312 243.019531 " fill-opacity="1" fill-rule="nonzero"/></g></g></g></g><g clip-path="url(#8b23a55984)"><g clip-path="url(#ec5fe4bcea)"><g clip-path="url(#57f9faa3ca)"><g clip-path="url(#1d0ff8af97)"><path fill="#000000" d="M 224.835938 211.566406 C 224.335938 212.835938 224.546875 214.210938 225.277344 215.25 C 225.703125 215.851562 226.300781 216.339844 227.039062 216.632812 C 229.042969 217.425781 231.308594 216.441406 232.101562 214.4375 L 238.296875 198.710938 C 239.089844 196.707031 238.101562 194.445312 236.09375 193.644531 C 234.089844 192.855469 231.824219 193.839844 231.035156 195.84375 Z M 224.835938 211.566406 " fill-opacity="1" fill-rule="nonzero"/></g></g></g></g><g clip-path="url(#2282bbaacc)"><g clip-path="url(#cf8f060fe3)"><g clip-path="url(#3092c53687)"><g clip-path="url(#d80ab050d9)"><path fill="#000000" d="M 270.597656 148.683594 C 273.460938 148.46875 275.609375 145.96875 275.390625 143.101562 L 272.988281 111.65625 C 272.769531 108.800781 270.292969 106.660156 267.445312 106.851562 C 266.671875 106.90625 189.625 112.109375 144.296875 115.535156 C 141.433594 115.753906 139.285156 118.25 139.507812 121.117188 C 139.582031 122.089844 139.914062 122.976562 140.433594 123.714844 C 141.457031 125.167969 143.195312 126.0625 145.09375 125.917969 C 166.25 124.320312 194.320312 122.332031 218.320312 120.664062 L 218.457031 122.460938 C 218.511719 123.1875 218.761719 123.851562 219.15625 124.40625 C 219.917969 125.496094 221.222656 126.164062 222.644531 126.058594 C 224.796875 125.898438 226.40625 124.023438 226.242188 121.871094 L 226.105469 120.121094 C 242.363281 118.996094 255.972656 118.066406 263.003906 117.589844 L 264.65625 139.261719 C 260.574219 140.5 256.929688 142.855469 254.015625 146.089844 C 253.984375 146.117188 253.957031 146.152344 253.925781 146.183594 C 253.796875 146.328125 253.644531 146.445312 253.519531 146.59375 C 253.480469 146.644531 253.453125 146.699219 253.414062 146.75 C 253.375 146.796875 253.324219 146.835938 253.289062 146.890625 C 248.863281 152.933594 247.519531 159.707031 249.507812 165.96875 C 249.671875 166.488281 249.914062 166.964844 250.214844 167.390625 C 251.484375 169.199219 253.828125 170.0625 256.042969 169.355469 C 258.785156 168.488281 260.300781 165.5625 259.429688 162.820312 C 258.488281 159.871094 259.253906 156.476562 261.558594 153.242188 C 263.871094 150.574219 267.070312 148.949219 270.597656 148.683594 Z M 270.597656 148.683594 " fill-opacity="1" fill-rule="nonzero"/></g></g></g></g><g clip-path="url(#5ca64cc9bb)"><g clip-path="url(#2b6d124f8f)"><g clip-path="url(#32e86717bf)"><g clip-path="url(#3ff1fe8954)"><path fill="#000000" d="M 107.03125 123.703125 C 106.8125 120.832031 104.308594 118.6875 101.445312 118.902344 C 94.558594 119.425781 85.867188 120.554688 85.5 120.605469 C 82.761719 120.960938 80.78125 123.402344 80.988281 126.15625 L 83.390625 157.609375 C 83.460938 158.550781 83.789062 159.449219 84.324219 160.210938 C 84.570312 160.558594 84.859375 160.882812 85.191406 161.164062 C 86.238281 162.066406 87.601562 162.511719 88.980469 162.410156 C 90.113281 162.320312 91.242188 162.378906 92.347656 162.578125 C 95.175781 163.085938 97.878906 161.207031 98.386719 158.375 C 98.894531 155.546875 97.011719 152.84375 94.183594 152.328125 C 93.929688 152.285156 93.671875 152.242188 93.414062 152.207031 L 91.746094 130.332031 C 94.804688 129.976562 98.808594 129.546875 102.238281 129.289062 C 105.101562 129.070312 107.25 126.570312 107.03125 123.703125 Z M 107.03125 123.703125 " fill-opacity="1" fill-rule="nonzero"/></g></g></g></g><g clip-path="url(#f8300252a8)"><g clip-path="url(#10ae13a366)"><g clip-path="url(#375e30fba0)"><g clip-path="url(#293fd41a0d)"><path fill="#000000" d="M 227.1875 134.285156 L 219.398438 134.773438 C 219.398438 134.773438 220.058594 145.222656 220.207031 147.164062 C 220.265625 147.894531 220.515625 148.554688 220.90625 149.113281 C 221.671875 150.199219 222.976562 150.871094 224.398438 150.765625 C 226.550781 150.601562 228.15625 148.726562 227.992188 146.578125 C 227.84375 144.644531 227.1875 134.289062 227.1875 134.285156 Z M 227.1875 134.285156 " fill-opacity="1" fill-rule="nonzero"/></g></g></g></g></svg>