<svg xmlns="http://www.w3.org/2000/svg" xmlns:xlink="http://www.w3.org/1999/xlink" width="500" zoomAndPan="magnify" viewBox="0 0 375 374.999991" height="500" preserveAspectRatio="xMidYMid meet" version="1.0"><defs><filter x="0%" y="0%" width="100%" height="100%" id="b7f4d50775"><feColorMatrix values="0 0 0 0 1 0 0 0 0 1 0 0 0 0 1 0 0 0 1 0" color-interpolation-filters="sRGB"/></filter><mask id="f44a432e67"><g filter="url(#b7f4d50775)"><rect x="-37.5" width="450" fill="#000000" y="-37.499999" height="449.999989" fill-opacity="0.31"/></g></mask><clipPath id="99f1c72e42"><path d="M 0.5 2 L 300.5 2 L 300.5 241 L 0.5 241 Z M 0.5 2 " clip-rule="nonzero"/></clipPath><clipPath id="81a816b6f3"><rect x="0" width="301" y="0" height="243"/></clipPath><clipPath id="5b9e61dd65"><path d="M 112.5 112.5 L 262.5 112.5 L 262.5 262.5 L 112.5 262.5 Z M 112.5 112.5 " clip-rule="nonzero"/></clipPath><clipPath id="1358d009be"><path d="M 256 151.054688 L 297.527344 151.054688 L 297.527344 197.859375 L 256 197.859375 Z M 256 151.054688 " clip-rule="nonzero"/></clipPath><clipPath id="02c4f43354"><path d="M 256 151.054688 L 297.527344 151.054688 L 297.527344 197.859375 L 256 197.859375 Z M 256 151.054688 " clip-rule="nonzero"/></clipPath></defs><g mask="url(#f44a432e67)"><g transform="matrix(1, 0, 0, 1, 37, 66)"><g clip-path="url(#81a816b6f3)"><g clip-path="url(#99f1c72e42)"><path fill="#b9d5f1" d="M 7.144531 48.585938 C 2.160156 61.5625 1.105469 75.695312 0.867188 89.597656 C 0.5 110.933594 2.109375 132.941406 11.5 152.097656 C 19.480469 168.371094 32.589844 181.554688 46.480469 193.195312 C 61.089844 205.4375 76.917969 216.386719 94.292969 224.210938 C 133.496094 241.871094 178.28125 242.664062 220.960938 237.515625 C 241.878906 234.992188 263.984375 230.449219 279.023438 215.691406 C 298.285156 196.792969 300.5 166.925781 300.390625 139.933594 C 300.28125 111.804688 298.269531 81.722656 281.289062 59.304688 C 260.695312 32.121094 224.105469 23.695312 190.484375 18.050781 C 153.5 11.84375 115.234375 4.390625 77.773438 2.171875 C 48.230469 0.425781 17.644531 21.234375 7.144531 48.585938 Z M 7.144531 48.585938 " fill-opacity="1" fill-rule="nonzero"/></g></g></g></g><g clip-path="url(#5b9e61dd65)"><path fill="#100f0d" d="M 234.300781 241.523438 C 233.617188 235.085938 232.238281 231.070312 223.300781 222.324219 C 221.613281 220.679688 220.136719 219.320312 218.832031 218.121094 C 212.539062 212.339844 211.574219 211.453125 214.242188 203.171875 C 215.046875 200.652344 215.746094 198.976562 216.253906 197.753906 C 217.902344 193.78125 217.609375 193.089844 214.554688 189.492188 C 213.71875 188.503906 212.679688 187.277344 211.339844 185.570312 C 209.097656 182.714844 208.402344 179.996094 209.273438 177.484375 C 210.695312 173.390625 215.949219 170.441406 220.527344 169.332031 C 224.035156 168.484375 226.011719 169.699219 228.511719 171.234375 C 231.167969 172.867188 234.179688 174.722656 239.042969 173.667969 C 240.480469 173.355469 241.789062 172.976562 243.054688 172.621094 C 248.988281 170.925781 252.597656 169.910156 258.507812 179.050781 C 258.757812 181.148438 258.921875 183.265625 258.984375 185.398438 C 259.003906 186.117188 259.003906 186.839844 259.003906 187.558594 C 259.003906 209.09375 249.414062 228.417969 234.300781 241.523438 Z M 116.113281 187.558594 C 116.113281 182.890625 116.574219 178.296875 117.4375 173.828125 C 121.183594 176.621094 124.449219 180.941406 125.910156 191.988281 C 127.300781 202.539062 132.824219 204.539062 137.691406 206.300781 C 139.625 207 141.449219 207.660156 143.011719 208.824219 C 147.546875 212.199219 156.914062 221.640625 156.914062 229.257812 C 156.914062 236.667969 160.382812 239.542969 163.730469 242.320312 C 164.847656 243.246094 166 244.203125 167.050781 245.34375 C 169.535156 248.054688 170.367188 253.480469 170.566406 256.949219 C 139.351562 249.300781 116.113281 221.097656 116.113281 187.558594 Z M 144.960938 130.1875 C 152.621094 133.125 158.605469 132.761719 163.449219 132.464844 C 166.167969 132.292969 168.519531 132.148438 170.660156 132.605469 C 172.8125 133.054688 173.765625 135.75 175.078125 140.136719 C 176.390625 144.5 177.875 149.441406 182.085938 152.128906 C 183.292969 152.902344 183.824219 154.007812 183.671875 155.421875 C 183.417969 157.714844 181.441406 160.09375 179.066406 160.960938 C 177.472656 161.542969 175.019531 161.707031 172.386719 159.191406 C 167.785156 154.785156 164.378906 155.152344 162.332031 156.238281 C 158.65625 158.183594 157.132812 163.871094 157.832031 168.019531 C 159.351562 177.085938 157.523438 181.621094 151.515625 183.671875 C 146.449219 185.398438 143.71875 190.914062 145.414062 195.964844 C 146.316406 198.636719 147.878906 200.628906 150.050781 201.878906 C 150.917969 202.378906 151.839844 202.945312 152.824219 203.546875 C 159.292969 207.503906 168.15625 212.917969 176.222656 209.617188 C 181.746094 207.355469 189.742188 206.308594 193.679688 208.828125 C 195.035156 209.695312 195.734375 210.9375 195.808594 212.617188 C 196.175781 220.9375 191.53125 239.167969 187.925781 246.195312 C 185.21875 251.476562 185.148438 256.242188 185.4375 258.949219 C 181.597656 258.839844 177.835938 258.425781 174.171875 257.726562 C 174.070312 254.503906 173.425781 247.007812 169.675781 242.929688 C 168.460938 241.609375 167.214844 240.574219 166.007812 239.574219 C 162.800781 236.910156 160.484375 234.992188 160.484375 229.257812 C 160.484375 219.515625 149.410156 209.136719 145.144531 205.960938 C 143.160156 204.484375 141 203.703125 138.910156 202.945312 C 134.246094 201.257812 130.554688 199.925781 129.449219 191.523438 C 127.652344 177.914062 123.042969 173.207031 118.269531 170.050781 C 122.265625 154.121094 131.640625 140.050781 144.960938 130.1875 Z M 155.050781 123.914062 C 165.164062 118.738281 176.097656 116.113281 187.558594 116.113281 C 192.710938 116.113281 197.816406 116.671875 202.785156 117.753906 C 198.683594 119.859375 196.421875 122.234375 195.910156 124.957031 C 195.414062 127.621094 196.667969 130.277344 199.648438 132.84375 C 201.675781 134.59375 202 137.703125 202.371094 141.296875 C 202.929688 146.710938 203.632812 153.445312 211.582031 156.164062 C 212.886719 156.605469 214.058594 156.828125 215.113281 156.828125 C 216.179688 156.828125 217.121094 156.605469 217.960938 156.148438 C 220.503906 154.777344 221.261719 151.828125 221.996094 148.96875 C 223.171875 144.402344 223.992188 142.574219 227.4375 142.894531 C 232.488281 143.382812 235.539062 144.214844 237.988281 144.886719 C 240.578125 145.589844 242.6875 146.152344 245.699219 145.96875 C 251.21875 153.664062 255.164062 162.417969 257.261719 171.761719 C 251.789062 166.417969 247.039062 167.769531 242.074219 169.1875 C 240.867188 169.535156 239.609375 169.894531 238.292969 170.175781 C 234.824219 170.925781 232.765625 169.660156 230.378906 168.191406 C 227.6875 166.542969 224.640625 164.664062 219.6875 165.863281 C 214.570312 167.105469 207.886719 170.585938 205.898438 176.316406 C 205.011719 178.878906 204.746094 182.945312 208.53125 187.769531 C 209.914062 189.535156 211.023438 190.84375 211.832031 191.796875 C 212.824219 192.957031 213.597656 193.878906 213.683594 194.246094 C 213.738281 194.507812 213.375 195.375 212.957031 196.386719 C 212.429688 197.664062 211.699219 199.421875 210.84375 202.082031 C 207.476562 212.53125 209.910156 214.769531 216.417969 220.75 C 217.703125 221.929688 219.160156 223.269531 220.804688 224.875 C 229.863281 233.738281 230.320312 236.777344 230.972656 244.25 C 219.296875 253.210938 204.785156 258.648438 189.035156 258.96875 C 188.769531 256.886719 188.65625 252.597656 191.101562 247.824219 C 195.054688 240.117188 199.777344 221.585938 199.371094 212.464844 C 199.246094 209.617188 197.945312 207.320312 195.601562 205.820312 C 190.601562 202.625 181.390625 203.644531 174.871094 206.3125 C 168.476562 208.925781 160.507812 204.058594 154.6875 200.5 C 153.675781 199.882812 152.71875 199.300781 151.835938 198.789062 C 150.433594 197.980469 149.410156 196.648438 148.796875 194.828125 C 147.722656 191.632812 149.457031 188.144531 152.667969 187.046875 C 160.503906 184.371094 163.179688 178.320312 161.347656 167.429688 C 160.875 164.613281 161.933594 160.488281 164.003906 159.390625 C 165.832031 158.425781 168.230469 160.148438 169.925781 161.769531 C 174.089844 165.75 178.203125 165.070312 180.289062 164.3125 C 183.964844 162.972656 186.816406 159.476562 187.214844 155.808594 C 187.523438 153.054688 186.347656 150.617188 184.003906 149.121094 C 180.910156 147.148438 179.683594 143.0625 178.5 139.109375 C 177.160156 134.648438 175.777344 130.035156 171.398438 129.109375 C 168.78125 128.558594 166.085938 128.722656 163.226562 128.902344 C 159.050781 129.15625 154.398438 129.441406 148.578125 127.664062 C 150.65625 126.316406 152.816406 125.0625 155.050781 123.914062 Z M 242.90625 142.328125 C 241.632812 142.171875 240.417969 141.847656 238.929688 141.441406 C 236.347656 140.734375 233.132812 139.855469 227.777344 139.347656 C 220.941406 138.699219 219.5 144.347656 218.539062 148.082031 C 217.972656 150.289062 217.4375 152.375 216.265625 153.007812 C 215.53125 153.40625 214.34375 153.332031 212.734375 152.785156 C 206.945312 150.804688 206.472656 146.234375 205.921875 140.929688 C 205.507812 136.9375 205.082031 132.8125 201.976562 130.140625 C 200.03125 128.464844 199.171875 126.941406 199.417969 125.609375 C 199.648438 124.355469 201.15625 121.882812 208.398438 119.21875 C 214.070312 120.941406 219.515625 123.367188 224.601562 126.46875 C 231.679688 130.765625 237.832031 136.144531 242.90625 142.328125 Z M 262.574219 187.558594 C 262.574219 186.800781 262.574219 186.050781 262.550781 185.292969 C 261.792969 159.800781 248.300781 136.667969 226.457031 123.417969 C 221.222656 120.226562 215.625 117.722656 209.804688 115.914062 C 209.550781 115.839844 208.144531 115.421875 207.871094 115.34375 C 201.304688 113.5 194.476562 112.542969 187.558594 112.542969 C 175.695312 112.542969 163.894531 115.378906 153.425781 120.742188 C 128.207031 133.660156 112.542969 159.261719 112.542969 187.558594 C 112.542969 222.945312 137.175781 252.671875 170.191406 260.53125 C 170.738281 260.664062 172.875 261.125 173.234375 261.195312 C 177.871094 262.097656 182.660156 262.574219 187.558594 262.574219 C 203.589844 262.574219 218.449219 257.503906 230.65625 248.902344 C 231.652344 248.203125 234.820312 245.75 235.113281 245.511719 C 251.859375 231.742188 262.574219 210.886719 262.574219 187.558594 " fill-opacity="1" fill-rule="nonzero"/></g><path fill="#1d1d1b" d="M 145.226562 216.742188 C 145.226562 216.730469 145.222656 216.714844 145.222656 216.699219 L 145.21875 216.699219 C 145.222656 216.714844 145.222656 216.730469 145.226562 216.742188 " fill-opacity="1" fill-rule="nonzero"/><g clip-path="url(#1358d009be)"><path fill="#1d1d1b" d="M 256.195312 192.109375 C 256.203125 192.113281 256.210938 192.121094 256.21875 192.128906 C 256.308594 192.242188 256.378906 192.34375 256.507812 192.460938 C 256.507812 192.460938 256.507812 192.460938 256.507812 192.464844 C 256.894531 192.984375 257.042969 193.523438 257.179688 194.039062 C 257.441406 195.039062 257.351562 196.007812 257.070312 196.925781 C 257.023438 197.082031 256.945312 197.234375 256.882812 197.390625 C 256.878906 197.398438 256.875 197.40625 256.875 197.414062 C 256.890625 197.40625 256.90625 197.402344 256.921875 197.390625 C 257.300781 197.238281 257.675781 197.082031 258.050781 196.925781 C 258.054688 196.925781 258.054688 196.925781 258.054688 196.925781 C 259.214844 196.441406 260.371094 195.949219 261.519531 195.441406 C 264.484375 194.140625 267.417969 192.761719 270.3125 191.289062 C 273.320312 189.742188 276.292969 188.121094 279.1875 186.328125 C 282.078125 184.539062 284.917969 182.621094 287.601562 180.4375 C 288.945312 179.34375 290.257812 178.195312 291.496094 176.933594 C 292.730469 175.675781 293.910156 174.320312 294.941406 172.789062 C 295.457031 172.023438 295.929688 171.210938 296.335938 170.34375 C 296.742188 169.472656 297.082031 168.539062 297.292969 167.546875 C 297.503906 166.554688 297.585938 165.496094 297.476562 164.441406 C 297.449219 164.179688 297.410156 163.914062 297.359375 163.652344 L 297.320312 163.457031 L 297.269531 163.246094 L 297.171875 162.886719 C 297.023438 162.367188 296.835938 161.878906 296.601562 161.410156 C 296.144531 160.472656 295.542969 159.640625 294.871094 158.921875 C 294.203125 158.199219 293.46875 157.589844 292.707031 157.050781 C 291.183594 155.988281 289.570312 155.203125 287.933594 154.566406 C 284.664062 153.300781 281.3125 152.578125 277.96875 152.058594 C 274.621094 151.546875 271.269531 151.285156 267.917969 151.144531 C 264.570312 151.015625 261.222656 151.027344 257.890625 151.167969 L 257.878906 151.648438 C 261.195312 151.9375 264.5 152.273438 267.78125 152.730469 C 271.058594 153.175781 274.3125 153.75 277.496094 154.496094 C 279.089844 154.871094 280.664062 155.296875 282.203125 155.792969 C 283.742188 156.289062 285.246094 156.851562 286.671875 157.519531 C 288.09375 158.1875 289.445312 158.960938 290.59375 159.882812 C 291.734375 160.800781 292.664062 161.863281 293.136719 163.011719 C 293.253906 163.292969 293.347656 163.589844 293.410156 163.871094 L 293.464844 164.121094 L 293.492188 164.324219 C 293.511719 164.472656 293.523438 164.621094 293.535156 164.769531 C 293.5625 165.371094 293.488281 165.992188 293.320312 166.613281 C 292.988281 167.871094 292.28125 169.128906 291.40625 170.320312 C 290.527344 171.511719 289.46875 172.640625 288.332031 173.703125 C 287.191406 174.769531 285.972656 175.785156 284.699219 176.746094 C 282.148438 178.667969 279.421875 180.421875 276.617188 182.058594 C 273.808594 183.6875 270.925781 185.234375 267.992188 186.679688 C 266.523438 187.402344 265.050781 188.125 263.5625 188.816406 C 262.722656 189.214844 261.875 189.597656 261.023438 189.980469 C 260.375 190.273438 259.726562 190.5625 259.078125 190.851562 C 258.195312 191.246094 257.308594 191.632812 256.421875 192.011719 C 256.414062 192.015625 256.40625 192.019531 256.398438 192.023438 C 256.332031 192.050781 256.265625 192.082031 256.195312 192.109375 " fill-opacity="1" fill-rule="nonzero"/></g><path fill="#1d1d1b" d="M 77.195312 209.9375 C 77.292969 210.984375 77.582031 212.019531 78.03125 212.964844 C 78.476562 213.90625 79.074219 214.75 79.730469 215.484375 C 81.058594 216.957031 82.613281 218.035156 84.199219 218.917969 C 85.792969 219.792969 87.433594 220.476562 89.085938 221.054688 C 90.738281 221.636719 92.410156 222.089844 94.082031 222.488281 C 97.433594 223.277344 100.804688 223.792969 104.179688 224.136719 C 105.867188 224.304688 107.550781 224.4375 109.238281 224.519531 C 110.925781 224.617188 112.609375 224.664062 114.292969 224.683594 C 116.925781 224.71875 119.546875 224.675781 122.164062 224.570312 C 123.859375 224.5 125.554688 224.410156 127.246094 224.296875 C 129.632812 224.140625 132.015625 223.945312 134.390625 223.726562 C 138.367188 223.347656 142.328125 222.90625 146.285156 222.425781 C 147.890625 222.230469 149.492188 222.03125 151.09375 221.824219 C 152.160156 221.691406 153.222656 221.554688 154.285156 221.414062 C 160.898438 220.546875 167.496094 219.605469 174.085938 218.582031 C 178.484375 217.894531 182.917969 217.183594 187.3125 216.433594 C 188.601562 216.214844 189.792969 215.988281 191.210938 215.757812 L 191.210938 215.75 L 191.277344 215.066406 L 189.925781 213.554688 L 189.921875 213.554688 C 189.042969 213.683594 188.113281 213.949219 187.339844 214.15625 L 187.339844 214.144531 C 182.894531 215.191406 178.355469 216.148438 173.839844 216.980469 C 167.3125 218.183594 160.714844 219.167969 154.109375 219.867188 C 153.886719 219.890625 153.65625 219.914062 153.429688 219.9375 C 153.195312 219.960938 152.957031 219.984375 152.722656 220.007812 C 152.484375 220.035156 152.25 220.058594 152.011719 220.078125 C 151.90625 220.089844 151.800781 220.097656 151.695312 220.109375 C 151.539062 220.125 151.421875 220.136719 151.261719 220.152344 C 151.101562 220.164062 150.949219 220.179688 150.824219 220.195312 C 150.566406 220.207031 150.550781 220.21875 150.441406 220.226562 C 150.160156 220.253906 149.855469 220.277344 149.574219 220.304688 C 149.570312 220.300781 149.554688 220.304688 149.550781 220.304688 C 149.152344 220.335938 148.742188 220.371094 148.332031 220.402344 C 147.933594 220.433594 147.523438 220.433594 147.121094 220.460938 C 146.714844 220.488281 146.308594 220.515625 145.902344 220.515625 L 145.894531 220.515625 C 142.011719 220.902344 138.125 220.957031 134.242188 221.023438 C 131.507812 221.070312 128.773438 221.03125 126.046875 221.03125 L 126.039062 221.03125 C 124.328125 221.03125 122.621094 221.03125 120.917969 220.902344 C 120.914062 220.902344 120.914062 220.902344 120.914062 220.902344 L 120.894531 220.902344 C 118.738281 220.902344 116.582031 220.757812 114.4375 220.632812 C 113.617188 220.585938 112.796875 220.546875 111.976562 220.488281 C 111.160156 220.429688 110.339844 220.375 109.523438 220.304688 C 107.894531 220.164062 106.265625 220.019531 104.640625 219.832031 C 101.402344 219.460938 98.183594 218.988281 95.046875 218.300781 C 93.480469 217.953125 91.9375 217.539062 90.4375 217.058594 C 88.9375 216.570312 87.484375 216 86.144531 215.304688 C 84.808594 214.605469 83.574219 213.785156 82.640625 212.8125 C 81.707031 211.835938 81.105469 210.734375 80.9375 209.523438 C 80.757812 208.3125 81.039062 206.976562 81.617188 205.660156 C 82.195312 204.335938 83.058594 203.058594 84.035156 201.84375 C 85.015625 200.625 86.128906 199.476562 87.304688 198.378906 C 88.476562 197.273438 89.722656 196.226562 91.003906 195.214844 C 93.5625 193.1875 96.28125 191.316406 99.058594 189.523438 C 101.839844 187.734375 104.6875 186.027344 107.570312 184.355469 L 107.355469 183.921875 C 104.257812 185.164062 101.203125 186.535156 98.214844 188.054688 C 95.222656 189.570312 92.296875 191.238281 89.476562 193.121094 C 86.667969 195.019531 83.945312 197.113281 81.558594 199.710938 C 80.375 201.019531 79.273438 202.460938 78.421875 204.144531 C 77.996094 204.988281 77.640625 205.898438 77.414062 206.871094 C 77.1875 207.847656 77.097656 208.890625 77.195312 209.9375 " fill-opacity="1" fill-rule="nonzero"/><g clip-path="url(#02c4f43354)"><path fill="#1d1d1b" d="M 256.195312 192.109375 C 256.203125 192.113281 256.210938 192.121094 256.21875 192.128906 C 256.308594 192.242188 256.378906 192.34375 256.507812 192.460938 C 256.507812 192.460938 256.507812 192.460938 256.507812 192.464844 C 256.894531 192.984375 257.042969 193.523438 257.179688 194.039062 C 257.441406 195.039062 257.351562 196.007812 257.070312 196.925781 C 257.023438 197.082031 256.945312 197.234375 256.882812 197.390625 C 256.878906 197.398438 256.875 197.40625 256.875 197.414062 C 256.890625 197.40625 256.90625 197.402344 256.921875 197.390625 C 257.300781 197.238281 257.675781 197.082031 258.050781 196.925781 C 258.054688 196.925781 258.054688 196.925781 258.054688 196.925781 C 259.214844 196.441406 260.371094 195.949219 261.519531 195.441406 C 264.484375 194.140625 267.417969 192.761719 270.3125 191.289062 C 273.320312 189.742188 276.292969 188.121094 279.1875 186.328125 C 282.078125 184.539062 284.917969 182.621094 287.601562 180.4375 C 288.945312 179.34375 290.257812 178.195312 291.496094 176.933594 C 292.730469 175.675781 293.910156 174.320312 294.941406 172.789062 C 295.457031 172.023438 295.929688 171.210938 296.335938 170.34375 C 296.742188 169.472656 297.082031 168.539062 297.292969 167.546875 C 297.503906 166.554688 297.585938 165.496094 297.476562 164.441406 C 297.449219 164.179688 297.410156 163.914062 297.359375 163.652344 L 297.320312 163.457031 L 297.269531 163.246094 L 297.171875 162.886719 C 297.023438 162.367188 296.835938 161.878906 296.601562 161.410156 C 296.144531 160.472656 295.542969 159.640625 294.871094 158.921875 C 294.203125 158.199219 293.46875 157.589844 292.707031 157.050781 C 291.183594 155.988281 289.570312 155.203125 287.933594 154.566406 C 284.664062 153.300781 281.3125 152.578125 277.96875 152.058594 C 274.621094 151.546875 271.269531 151.285156 267.917969 151.144531 C 264.570312 151.015625 261.222656 151.027344 257.890625 151.167969 L 257.878906 151.648438 C 261.195312 151.9375 264.5 152.273438 267.78125 152.730469 C 271.058594 153.175781 274.3125 153.75 277.496094 154.496094 C 279.089844 154.871094 280.664062 155.296875 282.203125 155.792969 C 283.742188 156.289062 285.246094 156.851562 286.671875 157.519531 C 288.09375 158.1875 289.445312 158.960938 290.59375 159.882812 C 291.734375 160.800781 292.664062 161.863281 293.136719 163.011719 C 293.253906 163.292969 293.347656 163.589844 293.410156 163.871094 L 293.464844 164.121094 L 293.492188 164.324219 C 293.511719 164.472656 293.523438 164.621094 293.535156 164.769531 C 293.5625 165.371094 293.488281 165.992188 293.320312 166.613281 C 292.988281 167.871094 292.28125 169.128906 291.40625 170.320312 C 290.527344 171.511719 289.46875 172.640625 288.332031 173.703125 C 287.191406 174.769531 285.972656 175.785156 284.699219 176.746094 C 282.148438 178.667969 279.421875 180.421875 276.617188 182.058594 C 273.808594 183.6875 270.925781 185.234375 267.992188 186.679688 C 266.523438 187.402344 265.050781 188.125 263.5625 188.816406 C 262.722656 189.214844 261.875 189.597656 261.023438 189.980469 C 260.375 190.273438 259.726562 190.5625 259.078125 190.851562 C 258.195312 191.246094 257.308594 191.632812 256.421875 192.011719 C 256.414062 192.015625 256.40625 192.019531 256.398438 192.023438 C 256.332031 192.050781 256.265625 192.082031 256.195312 192.109375 " fill-opacity="1" fill-rule="nonzero"/></g><path fill="#1d1d1b" d="M 77.195312 209.9375 C 77.292969 210.984375 77.582031 212.019531 78.03125 212.964844 C 78.476562 213.90625 79.074219 214.75 79.730469 215.484375 C 81.058594 216.957031 82.613281 218.035156 84.199219 218.917969 C 85.792969 219.792969 87.433594 220.476562 89.085938 221.054688 C 90.738281 221.636719 92.410156 222.089844 94.082031 222.488281 C 97.433594 223.277344 100.804688 223.792969 104.179688 224.136719 C 105.867188 224.304688 107.550781 224.4375 109.238281 224.519531 C 110.925781 224.617188 112.609375 224.664062 114.292969 224.683594 C 116.925781 224.71875 119.546875 224.675781 122.164062 224.570312 C 123.859375 224.5 125.554688 224.410156 127.246094 224.296875 C 129.632812 224.140625 132.015625 223.945312 134.390625 223.726562 C 138.367188 223.347656 142.328125 222.90625 146.285156 222.425781 C 147.890625 222.230469 149.492188 222.03125 151.09375 221.824219 C 152.160156 221.691406 153.222656 221.554688 154.285156 221.414062 C 160.898438 220.546875 167.496094 219.605469 174.085938 218.582031 C 178.484375 217.894531 182.917969 217.183594 187.3125 216.433594 C 188.601562 216.214844 189.792969 215.988281 191.210938 215.757812 L 191.210938 215.75 L 191.277344 215.066406 L 189.925781 213.554688 L 189.921875 213.554688 C 189.042969 213.683594 188.160156 213.957031 187.277344 214.164062 C 182.808594 215.210938 178.324219 216.160156 173.808594 216.988281 C 167.28125 218.191406 160.707031 219.175781 154.105469 219.871094 C 153.640625 219.921875 153.179688 219.964844 152.714844 220.011719 C 152.480469 220.035156 152.246094 220.058594 152.011719 220.078125 C 151.90625 220.089844 151.800781 220.097656 151.695312 220.109375 C 151.535156 220.125 151.375 220.136719 151.21875 220.152344 C 151.0625 220.167969 150.90625 220.183594 150.75 220.195312 C 150.632812 220.207031 150.515625 220.21875 150.394531 220.226562 C 150.113281 220.253906 149.832031 220.277344 149.550781 220.304688 C 149.546875 220.300781 149.546875 220.304688 149.539062 220.304688 C 149.136719 220.335938 148.730469 220.371094 148.328125 220.402344 C 147.925781 220.433594 147.519531 220.433594 147.117188 220.460938 C 146.714844 220.488281 146.308594 220.515625 145.902344 220.515625 L 145.894531 220.515625 C 142.011719 220.902344 138.125 220.957031 134.242188 221.023438 C 131.507812 221.070312 128.773438 221.03125 126.046875 221.03125 L 126.039062 221.03125 C 124.328125 221.03125 122.621094 221.03125 120.917969 220.902344 C 120.914062 220.902344 120.914062 220.902344 120.914062 220.902344 L 120.894531 220.902344 C 118.738281 220.902344 116.582031 220.757812 114.4375 220.632812 C 113.617188 220.585938 112.796875 220.546875 111.976562 220.488281 C 111.160156 220.429688 110.339844 220.375 109.523438 220.304688 C 107.894531 220.164062 106.265625 220.019531 104.640625 219.832031 C 101.402344 219.460938 98.183594 218.988281 95.046875 218.300781 C 93.480469 217.953125 91.9375 217.539062 90.4375 217.058594 C 88.9375 216.570312 87.484375 216 86.144531 215.304688 C 84.808594 214.605469 83.574219 213.785156 82.640625 212.8125 C 81.707031 211.835938 81.105469 210.734375 80.9375 209.523438 C 80.757812 208.3125 81.039062 206.976562 81.617188 205.660156 C 82.195312 204.335938 83.058594 203.058594 84.035156 201.84375 C 85.015625 200.625 86.128906 199.476562 87.304688 198.378906 C 88.476562 197.273438 89.722656 196.226562 91.003906 195.214844 C 93.5625 193.1875 96.28125 191.316406 99.058594 189.523438 C 101.839844 187.734375 104.6875 186.027344 107.570312 184.355469 L 107.355469 183.921875 C 104.257812 185.164062 101.203125 186.535156 98.214844 188.054688 C 95.222656 189.570312 92.296875 191.238281 89.476562 193.121094 C 86.667969 195.019531 83.945312 197.113281 81.558594 199.710938 C 80.375 201.019531 79.273438 202.460938 78.421875 204.144531 C 77.996094 204.988281 77.640625 205.898438 77.414062 206.871094 C 77.1875 207.847656 77.097656 208.890625 77.195312 209.9375 " fill-opacity="1" fill-rule="nonzero"/><path fill="#1d1d1b" d="M 188.203125 205.714844 L 191.277344 209.203125 L 192.109375 210.148438 L 194.148438 212.464844 L 194.792969 213.195312 C 194.976562 213.402344 195.238281 214.199219 195.210938 214.476562 L 195.179688 215.027344 C 195.1875 215.023438 195.210938 215.023438 195.210938 215.019531 L 195.210938 215.03125 L 194.824219 219.019531 L 194.824219 219.027344 L 194.304688 224.402344 C 194.238281 225.125 194.695312 225.542969 195.335938 225.335938 C 195.976562 225.125 196.691406 224.386719 196.917969 223.699219 L 198.695312 218.296875 L 198.695312 218.292969 L 199.878906 214.660156 L 206.210938 212.855469 L 206.671875 212.726562 L 206.675781 212.722656 L 224.695312 207.589844 L 224.632812 208.269531 L 224.632812 208.273438 L 224.636719 208.285156 L 224.695312 208.292969 L 224.503906 212.351562 L 224.503906 212.375 L 222.625 236.636719 C 222.589844 237.140625 222.746094 237.535156 223.132812 237.535156 L 223.152344 237.535156 C 223.300781 237.535156 223.472656 237.515625 223.652344 237.457031 L 226.53125 236.515625 C 227.203125 236.296875 227.902344 235.578125 228.085938 234.898438 L 229.816406 228.472656 C 229.996094 228.492188 230.152344 228.394531 230.335938 228.335938 L 231.597656 227.921875 L 231.941406 227.8125 C 232.609375 227.59375 233.058594 227.023438 232.839844 226.351562 L 232.683594 225.863281 C 232.613281 225.648438 232.480469 225.449219 232.316406 225.285156 C 231.960938 224.933594 231.441406 224.734375 230.988281 224.886719 L 230.699219 224.980469 L 232.25 219.394531 C 232.425781 219.414062 232.640625 219.492188 232.820312 219.433594 L 233.484375 219.21875 L 234.382812 218.925781 C 235.050781 218.710938 235.433594 217.960938 235.214844 217.292969 L 235.058594 216.804688 C 234.914062 216.371094 234.523438 215.976562 234.078125 215.820312 C 233.84375 215.734375 233.59375 215.714844 233.363281 215.792969 L 233.121094 215.867188 L 234.839844 209.554688 L 234.917969 209.273438 L 236.125 204.847656 L 236.296875 204.222656 L 245.359375 201.753906 L 245.433594 201.734375 C 247.519531 201.136719 251.246094 198.921875 252.773438 196.925781 C 253.296875 196.242188 253.5625 195.582031 253.414062 195.023438 C 253.277344 194.5 252.789062 194.109375 252.09375 193.832031 C 249.863281 192.945312 245.46875 193.179688 243.339844 193.792969 C 243.300781 193.804688 240.019531 194.996094 235.230469 196.75 C 235.074219 196.808594 234.917969 196.867188 234.753906 196.925781 C 234.511719 197.015625 234.265625 197.105469 234.015625 197.195312 L 233.679688 196.925781 L 233.460938 196.746094 L 230.394531 194.257812 L 224.542969 189.519531 L 224.785156 189.441406 C 225.457031 189.226562 225.851562 188.523438 225.636719 187.851562 L 225.476562 187.367188 C 225.257812 186.695312 224.574219 186.507812 223.902344 186.722656 L 222.34375 187.230469 C 222.164062 187.289062 221.964844 187.269531 221.835938 187.390625 L 217.226562 183.574219 L 217.515625 183.480469 C 218.183594 183.265625 218.597656 182.589844 218.378906 181.921875 L 218.222656 181.433594 C 218.003906 180.765625 217.230469 180.335938 216.5625 180.554688 L 214.953125 181.078125 C 214.773438 181.136719 214.617188 181.238281 214.484375 181.359375 L 209.300781 177.164062 C 208.753906 176.722656 207.738281 176.484375 207.070312 176.703125 L 204.191406 177.636719 C 203.523438 177.851562 203.363281 178.527344 203.820312 179.0625 L 218.929688 196.925781 L 221.976562 200.523438 L 222.6875 201.363281 C 222.332031 201.496094 221.976562 201.621094 221.621094 201.753906 C 211.914062 205.3125 201.878906 208.988281 198.40625 210.261719 L 195.453125 208.136719 L 192.109375 205.730469 L 190.730469 204.738281 C 190.144531 204.316406 189.136719 204.140625 188.496094 204.347656 C 187.855469 204.554688 187.726562 205.171875 188.203125 205.714844 " fill-opacity="1" fill-rule="nonzero"/><path fill="#1d1d1b" d="M 188.203125 205.714844 L 191.277344 209.203125 L 192.109375 210.148438 L 194.148438 212.464844 L 194.792969 213.195312 C 194.976562 213.402344 195.257812 214.199219 195.230469 214.476562 L 195.210938 215.019531 L 195.210938 215.03125 L 194.824219 219.019531 L 194.824219 219.027344 L 194.304688 224.402344 C 194.238281 225.125 194.695312 225.542969 195.335938 225.335938 C 195.976562 225.125 196.691406 224.386719 196.917969 223.699219 L 198.695312 218.296875 L 198.695312 218.292969 L 199.878906 214.660156 L 206.210938 212.855469 L 206.671875 212.726562 L 206.675781 212.722656 L 224.695312 207.589844 L 224.632812 208.269531 L 224.632812 208.273438 L 224.636719 208.285156 L 224.695312 208.292969 L 224.503906 212.351562 L 224.503906 212.375 L 222.625 236.636719 C 222.589844 237.140625 222.746094 237.535156 223.132812 237.535156 L 223.152344 237.535156 C 223.300781 237.535156 223.472656 237.515625 223.652344 237.457031 L 226.53125 236.515625 C 227.203125 236.296875 227.902344 235.578125 228.085938 234.898438 L 229.816406 228.472656 C 229.996094 228.492188 230.152344 228.394531 230.335938 228.335938 L 231.597656 227.921875 L 231.941406 227.8125 C 232.609375 227.59375 233.058594 227.023438 232.839844 226.351562 L 232.683594 225.863281 C 232.613281 225.648438 232.480469 225.449219 232.316406 225.285156 C 231.960938 224.933594 231.441406 224.734375 230.988281 224.886719 L 230.699219 224.980469 L 232.25 219.394531 C 232.425781 219.414062 232.640625 219.492188 232.820312 219.433594 L 233.484375 219.21875 L 234.382812 218.925781 C 235.050781 218.710938 235.433594 217.960938 235.214844 217.292969 L 235.058594 216.804688 C 234.914062 216.371094 234.523438 215.976562 234.078125 215.820312 C 233.84375 215.734375 233.59375 215.714844 233.363281 215.792969 L 233.121094 215.867188 L 234.839844 209.554688 L 234.917969 209.273438 L 236.125 204.847656 L 236.296875 204.222656 L 245.359375 201.753906 L 245.433594 201.734375 C 247.519531 201.136719 251.246094 198.921875 252.773438 196.925781 C 253.296875 196.242188 253.5625 195.582031 253.414062 195.023438 C 253.277344 194.5 252.789062 194.109375 252.09375 193.832031 C 249.863281 192.945312 245.46875 193.179688 243.339844 193.792969 C 243.300781 193.804688 240.019531 194.996094 235.230469 196.75 C 235.074219 196.808594 234.917969 196.867188 234.753906 196.925781 C 234.511719 197.015625 234.265625 197.105469 234.015625 197.195312 L 233.679688 196.925781 L 233.460938 196.746094 L 230.394531 194.257812 L 224.542969 189.519531 L 224.785156 189.441406 C 225.457031 189.226562 225.851562 188.523438 225.636719 187.851562 L 225.476562 187.367188 C 225.257812 186.695312 224.574219 186.507812 223.902344 186.722656 L 222.34375 187.230469 C 222.164062 187.289062 221.964844 187.269531 221.835938 187.390625 L 217.226562 183.574219 L 217.515625 183.480469 C 218.183594 183.265625 218.597656 182.589844 218.378906 181.921875 L 218.222656 181.433594 C 218.003906 180.765625 217.230469 180.335938 216.5625 180.554688 L 214.953125 181.078125 C 214.773438 181.136719 214.617188 181.238281 214.484375 181.359375 L 209.300781 177.164062 C 208.753906 176.722656 207.738281 176.484375 207.070312 176.703125 L 204.191406 177.636719 C 203.523438 177.851562 203.363281 178.527344 203.820312 179.0625 L 218.929688 196.925781 L 221.976562 200.523438 L 222.6875 201.363281 C 222.332031 201.496094 221.976562 201.621094 221.621094 201.753906 C 211.914062 205.3125 201.878906 208.988281 198.40625 210.261719 L 195.453125 208.136719 L 192.109375 205.730469 L 190.730469 204.738281 C 190.144531 204.316406 189.136719 204.140625 188.496094 204.347656 C 187.855469 204.554688 187.726562 205.171875 188.203125 205.714844 " fill-opacity="1" fill-rule="nonzero"/></svg>