<svg xmlns="http://www.w3.org/2000/svg" xmlns:xlink="http://www.w3.org/1999/xlink" width="500" zoomAndPan="magnify" viewBox="0 0 375 374.999991" height="500" preserveAspectRatio="xMidYMid meet" version="1.0"><defs><filter x="0%" y="0%" width="100%" height="100%" id="a9e974a30c"><feColorMatrix values="0 0 0 0 1 0 0 0 0 1 0 0 0 0 1 0 0 0 1 0" color-interpolation-filters="sRGB"/></filter><mask id="030146affb"><g filter="url(#a9e974a30c)"><rect x="-37.5" width="450" fill="#000000" y="-37.499999" height="449.999989" fill-opacity="0.31"/></g></mask><clipPath id="09117312e0"><path d="M 0.5 2 L 300.5 2 L 300.5 241 L 0.5 241 Z M 0.5 2 " clip-rule="nonzero"/></clipPath><clipPath id="986814b362"><rect x="0" width="301" y="0" height="243"/></clipPath><clipPath id="bff7970786"><path d="M 112.5 115.5 L 262 115.5 L 262 259.5 L 112.5 259.5 Z M 112.5 115.5 " clip-rule="nonzero"/></clipPath></defs><g mask="url(#030146affb)"><g transform="matrix(1, 0, 0, 1, 37, 66)"><g clip-path="url(#986814b362)"><g clip-path="url(#09117312e0)"><path fill="#b9d5f1" d="M 7.144531 48.585938 C 2.160156 61.5625 1.105469 75.695312 0.867188 89.597656 C 0.5 110.933594 2.109375 132.941406 11.5 152.097656 C 19.480469 168.371094 32.589844 181.554688 46.480469 193.195312 C 61.089844 205.4375 76.917969 216.386719 94.292969 224.210938 C 133.496094 241.871094 178.28125 242.664062 220.960938 237.515625 C 241.878906 234.992188 263.984375 230.449219 279.023438 215.691406 C 298.285156 196.792969 300.5 166.925781 300.390625 139.933594 C 300.28125 111.804688 298.269531 81.722656 281.289062 59.304688 C 260.695312 32.121094 224.105469 23.695312 190.484375 18.050781 C 153.5 11.84375 115.234375 4.390625 77.773438 2.171875 C 48.230469 0.425781 17.644531 21.234375 7.144531 48.585938 Z M 7.144531 48.585938 " fill-opacity="1" fill-rule="nonzero"/></g></g></g></g><g clip-path="url(#bff7970786)"><path fill="#000000" d="M 255.261719 220.648438 C 250.675781 215.621094 243.546875 210.386719 234.957031 206.125 L 234.847656 206.070312 C 234.011719 205.65625 233.179688 205.265625 232.347656 204.882812 L 232.347656 130.964844 C 232.347656 126.28125 228 122.246094 220.96875 119.511719 C 214.609375 117.035156 205.878906 115.5 196.285156 115.5 C 186.695312 115.5 177.964844 117.035156 171.597656 119.507812 C 164.574219 122.242188 160.222656 126.277344 160.222656 130.960938 L 160.222656 162.414062 C 156.582031 161.910156 152.675781 161.632812 148.605469 161.632812 C 139.011719 161.632812 130.28125 163.164062 123.917969 165.640625 C 116.894531 168.378906 112.546875 172.414062 112.546875 177.097656 L 112.546875 244.042969 C 112.546875 248.730469 116.894531 252.765625 123.921875 255.5 C 130.285156 257.976562 139.015625 259.507812 148.609375 259.507812 C 158.203125 259.507812 166.933594 257.972656 173.296875 255.5 C 179.3125 253.15625 183.359375 249.863281 184.402344 246.023438 C 185.875 246.234375 187.386719 246.410156 188.945312 246.542969 C 191.324219 246.742188 193.777344 246.847656 196.285156 246.847656 C 198.535156 246.847656 200.753906 246.761719 202.929688 246.59375 C 204.808594 246.453125 206.671875 246.238281 208.5 245.96875 C 210.167969 246.9375 211.902344 247.882812 213.707031 248.777344 L 213.816406 248.832031 C 222.398438 253.078125 230.886719 255.570312 237.667969 256.171875 C 245.171875 256.835938 250.851562 255.148438 252.929688 250.953125 L 260.355469 235.953125 C 262.4375 231.75 260.335938 226.210938 255.261719 220.648438 Z M 232.859375 210.277344 C 240.929688 214.277344 247.585938 219.144531 251.816406 223.78125 C 255.570312 227.894531 257.324219 231.589844 256.1875 233.882812 L 256.183594 233.886719 C 255.042969 236.183594 251.039062 237.027344 245.5 236.53125 C 239.257812 235.980469 231.347656 233.632812 223.246094 229.617188 C 215.171875 225.617188 208.511719 220.746094 204.28125 216.105469 C 200.527344 211.992188 198.777344 208.300781 199.917969 206.003906 C 201.054688 203.710938 205.054688 202.863281 210.597656 203.355469 C 215.859375 203.824219 222.304688 205.566406 229.042969 208.5 C 229.082031 208.519531 229.117188 208.535156 229.15625 208.550781 C 230.375 209.085938 231.605469 209.652344 232.84375 210.265625 Z M 188.304688 218.949219 C 187.410156 220.753906 187.292969 222.8125 187.847656 225.007812 C 187.578125 224.980469 187.308594 224.957031 187.039062 224.925781 C 186.242188 224.832031 185.453125 224.730469 184.667969 224.613281 L 184.667969 212.589844 C 185.808594 212.746094 186.992188 212.882812 188.222656 212.996094 C 189.179688 213.085938 190.15625 213.15625 191.148438 213.214844 Z M 227.679688 197.90625 C 227.679688 198.605469 227.417969 199.308594 226.929688 200.011719 C 226.472656 200.671875 225.828125 201.3125 225.027344 201.9375 C 219.960938 200.179688 215.15625 199.09375 210.996094 198.726562 C 203.492188 198.0625 197.8125 199.75 195.738281 203.945312 L 193.402344 208.65625 C 191.78125 208.601562 190.191406 208.5 188.640625 208.359375 C 187.308594 208.238281 185.984375 208.070312 184.667969 207.878906 L 184.667969 195.851562 C 186.058594 196.042969 187.480469 196.207031 188.945312 196.332031 C 191.324219 196.53125 193.777344 196.636719 196.285156 196.636719 C 205.878906 196.636719 214.609375 195.101562 220.972656 192.625 C 223.617188 191.597656 225.882812 190.382812 227.679688 189.023438 Z M 227.679688 181.171875 C 227.679688 183.742188 224.476562 186.269531 219.292969 188.289062 C 213.453125 190.5625 205.320312 191.96875 196.285156 191.96875 C 193.886719 191.96875 191.5625 191.867188 189.328125 191.683594 C 187.726562 191.550781 186.171875 191.367188 184.667969 191.144531 L 184.667969 179.121094 C 186.050781 179.3125 187.464844 179.476562 188.917969 179.597656 C 191.300781 179.796875 193.765625 179.90625 196.28125 179.90625 C 205.875 179.90625 214.605469 178.371094 220.96875 175.898438 C 223.613281 174.867188 225.878906 173.652344 227.675781 172.292969 L 227.675781 181.171875 Z M 227.679688 147.699219 C 227.679688 150.265625 224.476562 152.796875 219.292969 154.8125 C 213.453125 157.085938 205.320312 158.496094 196.285156 158.496094 C 187.25 158.496094 179.117188 157.085938 173.277344 154.8125 C 168.097656 152.796875 164.894531 150.265625 164.894531 147.699219 L 164.894531 138.816406 C 166.691406 140.179688 168.953125 141.390625 171.597656 142.421875 C 177.964844 144.898438 186.695312 146.429688 196.285156 146.429688 C 205.878906 146.429688 214.609375 144.894531 220.972656 142.421875 C 223.617188 141.390625 225.882812 140.175781 227.679688 138.816406 Z M 164.804688 163.203125 C 164.679688 160.839844 164.699219 158.136719 164.753906 155.441406 C 166.574219 156.851562 168.886719 158.097656 171.597656 159.15625 C 177.964844 161.636719 186.695312 163.164062 196.285156 163.164062 C 205.878906 163.164062 214.609375 161.632812 220.972656 159.15625 C 223.617188 158.128906 225.882812 156.914062 227.679688 155.554688 L 227.679688 164.441406 C 227.679688 167.007812 224.476562 169.539062 219.292969 171.554688 C 213.453125 173.828125 205.320312 175.234375 196.285156 175.234375 C 193.878906 175.234375 191.542969 175.136719 189.304688 174.945312 C 187.527344 174.796875 185.800781 174.589844 184.144531 174.328125 C 182.792969 170.828125 178.894531 167.824219 173.296875 165.644531 C 170.800781 164.671875 167.9375 163.84375 164.804688 163.203125 Z M 180 193.835938 C 180 196.402344 176.796875 198.929688 171.613281 200.949219 C 165.773438 203.222656 157.640625 204.628906 148.605469 204.628906 C 139.570312 204.628906 131.4375 203.222656 125.597656 200.949219 C 120.417969 198.929688 117.210938 196.402344 117.210938 193.835938 L 117.210938 184.949219 C 119.011719 186.3125 121.273438 187.523438 123.917969 188.550781 C 130.28125 191.03125 139.011719 192.558594 148.605469 192.558594 C 158.199219 192.558594 166.929688 191.027344 173.292969 188.550781 C 175.9375 187.523438 178.199219 186.308594 180 184.949219 Z M 123.921875 205.289062 C 130.285156 207.765625 139.015625 209.296875 148.609375 209.296875 C 158.203125 209.296875 166.933594 207.761719 173.296875 205.289062 C 175.941406 204.257812 178.203125 203.042969 180.003906 201.683594 L 180.003906 210.570312 C 180.003906 213.136719 176.800781 215.667969 171.617188 217.6875 C 165.777344 219.960938 157.644531 221.367188 148.609375 221.367188 C 139.574219 221.367188 131.441406 219.960938 125.601562 217.6875 C 120.421875 215.667969 117.214844 213.136719 117.214844 210.570312 L 117.214844 201.683594 C 119.011719 203.042969 121.277344 204.257812 123.921875 205.289062 Z M 117.214844 227.304688 L 117.214844 218.417969 C 119.015625 219.78125 121.277344 220.992188 123.921875 222.019531 C 130.285156 224.5 139.015625 226.03125 148.609375 226.03125 C 158.203125 226.03125 166.933594 224.496094 173.296875 222.019531 C 175.941406 220.992188 178.203125 219.777344 180.003906 218.417969 L 180.003906 227.304688 C 180.003906 229.871094 176.800781 232.402344 171.617188 234.417969 C 165.777344 236.691406 157.644531 238.101562 148.609375 238.101562 C 139.574219 238.101562 131.441406 236.691406 125.601562 234.417969 C 120.417969 232.402344 117.214844 229.871094 117.214844 227.304688 Z M 173.273438 123.851562 C 179.113281 121.578125 187.246094 120.171875 196.28125 120.171875 C 205.316406 120.171875 213.449219 121.578125 219.289062 123.851562 C 224.46875 125.867188 227.675781 128.398438 227.675781 130.964844 C 227.675781 133.535156 224.472656 136.0625 219.289062 138.082031 C 213.449219 140.355469 205.316406 141.761719 196.28125 141.761719 C 187.246094 141.761719 179.113281 140.355469 173.273438 138.082031 C 168.09375 136.0625 164.890625 133.535156 164.890625 130.964844 C 164.894531 128.398438 168.09375 125.867188 173.273438 123.851562 Z M 125.597656 169.984375 C 131.4375 167.710938 139.570312 166.300781 148.605469 166.300781 C 153.425781 166.300781 157.980469 166.707031 162.074219 167.421875 C 162.09375 167.425781 162.113281 167.429688 162.136719 167.433594 C 165.695312 168.0625 168.90625 168.929688 171.617188 169.984375 C 176.796875 172 180.003906 174.53125 180.003906 177.097656 C 180.003906 179.664062 176.800781 182.195312 171.617188 184.210938 C 165.777344 186.484375 157.644531 187.894531 148.609375 187.894531 C 139.574219 187.894531 131.441406 186.484375 125.601562 184.210938 C 120.421875 182.195312 117.214844 179.664062 117.214844 177.097656 C 117.214844 174.53125 120.417969 172 125.597656 169.984375 Z M 171.617188 251.15625 C 165.777344 253.429688 157.644531 254.835938 148.609375 254.835938 C 139.574219 254.835938 131.441406 253.429688 125.601562 251.15625 C 120.421875 249.136719 117.214844 246.609375 117.214844 244.042969 L 117.214844 235.15625 C 119.015625 236.519531 121.277344 237.730469 123.921875 238.757812 C 130.285156 241.234375 139.015625 242.765625 148.609375 242.765625 C 158.203125 242.765625 166.933594 241.234375 173.296875 238.757812 C 175.941406 237.730469 178.203125 236.515625 180.003906 235.15625 L 180.003906 244.042969 C 180 246.605469 176.796875 249.136719 171.617188 251.15625 Z M 196.285156 242.171875 C 193.886719 242.171875 191.5625 242.070312 189.328125 241.886719 C 187.726562 241.753906 186.171875 241.570312 184.667969 241.347656 L 184.667969 229.324219 C 185.273438 229.40625 185.882812 229.488281 186.511719 229.558594 C 187.648438 229.691406 188.824219 229.796875 190.039062 229.882812 C 190.941406 231.320312 192.070312 232.785156 193.402344 234.25 C 195.746094 236.820312 198.757812 239.441406 202.28125 241.960938 C 200.359375 242.097656 198.355469 242.171875 196.285156 242.171875 Z M 248.753906 248.886719 C 247.617188 251.183594 243.617188 252.027344 238.074219 251.535156 C 231.828125 250.980469 223.917969 248.632812 215.828125 244.628906 L 215.808594 244.621094 C 207.738281 240.621094 201.082031 235.753906 196.851562 231.117188 C 195.46875 229.605469 194.363281 228.148438 193.570312 226.796875 C 193.492188 226.589844 193.386719 226.402344 193.253906 226.230469 C 192.144531 224.144531 191.824219 222.339844 192.484375 221.007812 L 196.425781 213.046875 C 197.429688 215.0625 198.921875 217.15625 200.828125 219.25 C 205.425781 224.285156 212.574219 229.535156 221.1875 233.800781 C 229.789062 238.058594 238.296875 240.5625 245.097656 241.167969 C 247.921875 241.421875 250.492188 241.335938 252.703125 240.914062 Z M 248.753906 248.886719 " fill-opacity="1" fill-rule="nonzero"/></g></svg>