<svg xmlns="http://www.w3.org/2000/svg" xmlns:xlink="http://www.w3.org/1999/xlink" width="500" zoomAndPan="magnify" viewBox="0 0 375 374.999991" height="500" preserveAspectRatio="xMidYMid meet" version="1.0"><defs><filter x="0%" y="0%" width="100%" height="100%" id="6ebf45d387"><feColorMatrix values="0 0 0 0 1 0 0 0 0 1 0 0 0 0 1 0 0 0 1 0" color-interpolation-filters="sRGB"/></filter><mask id="df5098adfb"><g filter="url(#6ebf45d387)"><rect x="-37.5" width="450" fill="#000000" y="-37.499999" height="449.999989" fill-opacity="0.31"/></g></mask><clipPath id="bd93f0ec4f"><path d="M 0.5 2 L 300.5 2 L 300.5 241 L 0.5 241 Z M 0.5 2 " clip-rule="nonzero"/></clipPath><clipPath id="c529159e6e"><rect x="0" width="301" y="0" height="243"/></clipPath><clipPath id="9c51811e05"><path d="M 115 112.5 L 260 112.5 L 260 262.5 L 115 262.5 Z M 115 112.5 " clip-rule="nonzero"/></clipPath></defs><g mask="url(#df5098adfb)"><g transform="matrix(1, 0, 0, 1, 37, 66)"><g clip-path="url(#c529159e6e)"><g clip-path="url(#bd93f0ec4f)"><path fill="#b9d5f1" d="M 7.144531 48.585938 C 2.160156 61.5625 1.105469 75.695312 0.867188 89.597656 C 0.5 110.933594 2.109375 132.941406 11.5 152.097656 C 19.480469 168.371094 32.589844 181.554688 46.480469 193.195312 C 61.089844 205.4375 76.917969 216.386719 94.292969 224.210938 C 133.496094 241.871094 178.28125 242.664062 220.960938 237.515625 C 241.878906 234.992188 263.984375 230.449219 279.023438 215.691406 C 298.285156 196.792969 300.5 166.921875 300.390625 139.933594 C 300.28125 111.804688 298.269531 81.722656 281.289062 59.304688 C 260.695312 32.121094 224.105469 23.695312 190.484375 18.050781 C 153.5 11.84375 115.234375 4.390625 77.773438 2.171875 C 48.230469 0.425781 17.644531 21.234375 7.144531 48.585938 Z M 7.144531 48.585938 " fill-opacity="1" fill-rule="nonzero"/></g></g></g></g><g clip-path="url(#9c51811e05)"><path fill="#000000" d="M 191.667969 256.023438 C 193.402344 256.023438 194.808594 257.425781 194.808594 259.15625 C 194.808594 260.742188 193.625 262.054688 192.09375 262.261719 L 191.667969 262.292969 L 183.289062 262.292969 C 181.554688 262.292969 180.148438 260.886719 180.148438 259.15625 C 180.148438 257.570312 181.328125 256.261719 182.863281 256.050781 L 183.289062 256.023438 Z M 200.046875 247.667969 C 201.78125 247.667969 203.1875 249.070312 203.1875 250.800781 C 203.1875 252.386719 202.003906 253.699219 200.472656 253.90625 L 200.046875 253.933594 L 174.910156 253.933594 C 173.175781 253.933594 171.769531 252.53125 171.769531 250.800781 C 171.769531 249.214844 172.953125 247.902344 174.484375 247.695312 L 174.910156 247.667969 Z M 204.234375 239.3125 C 205.96875 239.3125 207.375 240.714844 207.375 242.445312 C 207.375 244.03125 206.195312 245.34375 204.660156 245.550781 L 204.234375 245.578125 L 170.722656 245.578125 C 168.988281 245.578125 167.582031 244.175781 167.582031 242.445312 C 167.582031 240.859375 168.761719 239.546875 170.296875 239.339844 L 170.722656 239.3125 Z M 187.476562 143.210938 C 210.035156 143.210938 228.320312 161.449219 228.320312 183.949219 C 228.320312 193.554688 222.578125 203.9375 211.335938 215.222656 C 209.011719 217.554688 207.625 220.636719 207.40625 223.898438 L 207.378906 224.789062 L 207.375 232 C 207.375 234.703125 205.316406 236.925781 202.675781 237.195312 L 202.140625 237.222656 L 172.816406 237.222656 C 170.105469 237.222656 167.875 235.167969 167.605469 232.53125 L 167.582031 232 L 167.578125 224.796875 C 167.578125 221.207031 166.15625 217.765625 163.621094 215.222656 C 152.378906 203.9375 146.636719 193.554688 146.636719 183.949219 C 146.636719 161.449219 164.921875 143.210938 187.476562 143.210938 Z M 149.890625 217.9375 C 151.015625 219.058594 151.109375 220.820312 150.171875 222.046875 L 149.890625 222.367188 L 141.003906 231.230469 C 139.777344 232.457031 137.789062 232.457031 136.5625 231.230469 C 135.4375 230.109375 135.34375 228.347656 136.28125 227.121094 L 136.5625 226.800781 L 145.449219 217.9375 C 146.675781 216.710938 148.664062 216.710938 149.890625 217.9375 Z M 229.542969 217.65625 L 229.867188 217.9375 L 238.753906 226.800781 C 239.980469 228.023438 239.980469 230.007812 238.753906 231.230469 C 237.628906 232.355469 235.863281 232.445312 234.632812 231.511719 L 234.308594 231.230469 L 225.421875 222.367188 C 224.195312 221.144531 224.195312 219.160156 225.421875 217.9375 C 226.546875 216.816406 228.3125 216.722656 229.542969 217.65625 Z M 187.476562 149.476562 C 168.390625 149.476562 152.917969 164.910156 152.917969 183.949219 C 152.917969 191.589844 157.890625 200.582031 168.078125 210.804688 C 171.535156 214.277344 173.578125 218.886719 173.835938 223.75 L 173.863281 224.796875 L 173.859375 230.953125 L 201.09375 230.953125 L 201.09375 224.789062 C 201.097656 220.246094 202.65625 215.867188 205.484375 212.359375 L 206.160156 211.566406 L 206.878906 210.804688 C 217.0625 200.582031 222.039062 191.585938 222.039062 183.949219 C 222.039062 164.910156 206.566406 149.476562 187.476562 149.476562 Z M 131.105469 177.132812 C 132.839844 177.132812 134.246094 178.535156 134.246094 180.265625 C 134.246094 181.851562 133.066406 183.164062 131.53125 183.371094 L 131.105469 183.402344 L 118.539062 183.402344 C 116.804688 183.402344 115.398438 181.996094 115.398438 180.265625 C 115.398438 178.679688 116.578125 177.371094 118.113281 177.160156 L 118.539062 177.132812 Z M 256.777344 177.132812 C 258.511719 177.132812 259.917969 178.535156 259.917969 180.265625 C 259.917969 181.851562 258.734375 183.164062 257.203125 183.371094 L 256.777344 183.402344 L 244.207031 183.402344 C 242.472656 183.402344 241.066406 181.996094 241.066406 180.265625 C 241.066406 178.679688 242.25 177.371094 243.78125 177.160156 L 244.207031 177.132812 Z M 191.667969 155.746094 C 204.96875 155.746094 215.753906 166.5 215.753906 179.769531 C 215.753906 181.5 214.347656 182.902344 212.613281 182.902344 C 210.878906 182.902344 209.46875 181.5 209.46875 179.769531 C 209.46875 169.964844 201.5 162.011719 191.667969 162.011719 C 189.933594 162.011719 188.523438 160.609375 188.523438 158.878906 C 188.523438 157.148438 189.933594 155.746094 191.667969 155.746094 Z M 140.683594 129.023438 L 141.003906 129.300781 L 149.890625 138.164062 C 151.117188 139.390625 151.117188 141.375 149.890625 142.597656 C 148.765625 143.71875 147 143.8125 145.769531 142.878906 L 145.449219 142.597656 L 136.5625 133.734375 C 135.335938 132.511719 135.335938 130.527344 136.5625 129.300781 C 137.6875 128.179688 139.449219 128.085938 140.683594 129.023438 Z M 238.753906 129.300781 C 239.878906 130.425781 239.972656 132.183594 239.035156 133.414062 L 238.753906 133.734375 L 229.867188 142.597656 C 228.640625 143.820312 226.652344 143.820312 225.421875 142.597656 C 224.300781 141.476562 224.207031 139.714844 225.140625 138.488281 L 225.421875 138.164062 L 234.308594 129.300781 C 235.535156 128.078125 237.527344 128.078125 238.753906 129.300781 Z M 187.65625 112.371094 C 189.246094 112.371094 190.5625 113.550781 190.769531 115.078125 L 190.796875 115.503906 L 190.796875 128.039062 C 190.796875 129.769531 189.390625 131.171875 187.65625 131.171875 C 186.066406 131.171875 184.753906 129.992188 184.542969 128.464844 L 184.515625 128.039062 L 184.515625 115.503906 C 184.515625 113.773438 185.921875 112.371094 187.65625 112.371094 Z M 187.65625 112.371094 " fill-opacity="1" fill-rule="nonzero"/></g></svg>