<svg xmlns="http://www.w3.org/2000/svg" xmlns:xlink="http://www.w3.org/1999/xlink" width="500" zoomAndPan="magnify" viewBox="0 0 375 374.999991" height="500" preserveAspectRatio="xMidYMid meet" version="1.0"><defs><filter x="0%" y="0%" width="100%" height="100%" id="74d37c3b27"><feColorMatrix values="0 0 0 0 1 0 0 0 0 1 0 0 0 0 1 0 0 0 1 0" color-interpolation-filters="sRGB"/></filter><mask id="807af9165d"><g filter="url(#74d37c3b27)"><rect x="-37.5" width="450" fill="#000000" y="-37.499999" height="449.999989" fill-opacity="0.31"/></g></mask><clipPath id="c28a53a5a6"><path d="M 0.5 2 L 300.5 2 L 300.5 241 L 0.5 241 Z M 0.5 2 " clip-rule="nonzero"/></clipPath><clipPath id="8c32f9d509"><rect x="0" width="301" y="0" height="243"/></clipPath><clipPath id="e816d4dbb0"><path d="M 62 93 L 86 93 L 86 125 L 62 125 Z M 62 93 " clip-rule="nonzero"/></clipPath><clipPath id="9730f69d78"><path d="M 70.570312 80.359375 L 187.660156 106.617188 L 176.335938 157.113281 L 59.246094 130.855469 Z M 70.570312 80.359375 " clip-rule="nonzero"/></clipPath><clipPath id="b65b1bd290"><path d="M 70.570312 80.359375 L 187.660156 106.617188 L 176.335938 157.113281 L 59.246094 130.855469 Z M 70.570312 80.359375 " clip-rule="nonzero"/></clipPath><clipPath id="63eb4e1e96"><path d="M 70.570312 80.359375 L 187.660156 106.617188 L 176.335938 157.113281 L 59.246094 130.855469 Z M 70.570312 80.359375 " clip-rule="nonzero"/></clipPath><clipPath id="77f7a345b0"><path d="M 83 112 L 105 112 L 105 140 L 83 140 Z M 83 112 " clip-rule="nonzero"/></clipPath><clipPath id="f338b8d741"><path d="M 70.570312 80.359375 L 187.660156 106.617188 L 176.335938 157.113281 L 59.246094 130.855469 Z M 70.570312 80.359375 " clip-rule="nonzero"/></clipPath><clipPath id="d0fd75fc32"><path d="M 70.570312 80.359375 L 187.660156 106.617188 L 176.335938 157.113281 L 59.246094 130.855469 Z M 70.570312 80.359375 " clip-rule="nonzero"/></clipPath><clipPath id="5b3719b6ca"><path d="M 70.570312 80.359375 L 187.660156 106.617188 L 176.335938 157.113281 L 59.246094 130.855469 Z M 70.570312 80.359375 " clip-rule="nonzero"/></clipPath><clipPath id="cf91e2d3bd"><path d="M 88.042969 112.125 L 104.769531 115.875 L 99.394531 139.84375 L 82.667969 136.09375 Z M 88.042969 112.125 " clip-rule="nonzero"/></clipPath><clipPath id="e70037c337"><path d="M 109 114 L 126 114 L 126 136 L 109 136 Z M 109 114 " clip-rule="nonzero"/></clipPath><clipPath id="411168f425"><path d="M 70.570312 80.359375 L 187.660156 106.617188 L 176.335938 157.113281 L 59.246094 130.855469 Z M 70.570312 80.359375 " clip-rule="nonzero"/></clipPath><clipPath id="0f90f96c0e"><path d="M 70.570312 80.359375 L 187.660156 106.617188 L 176.335938 157.113281 L 59.246094 130.855469 Z M 70.570312 80.359375 " clip-rule="nonzero"/></clipPath><clipPath id="2bfe7a5616"><path d="M 70.570312 80.359375 L 187.660156 106.617188 L 176.335938 157.113281 L 59.246094 130.855469 Z M 70.570312 80.359375 " clip-rule="nonzero"/></clipPath><clipPath id="e165db29e3"><path d="M 129 108 L 144 108 L 144 127 L 129 127 Z M 129 108 " clip-rule="nonzero"/></clipPath><clipPath id="9c7a3a8ef0"><path d="M 70.570312 80.359375 L 187.660156 106.617188 L 176.335938 157.113281 L 59.246094 130.855469 Z M 70.570312 80.359375 " clip-rule="nonzero"/></clipPath><clipPath id="3bb6dc87ef"><path d="M 70.570312 80.359375 L 187.660156 106.617188 L 176.335938 157.113281 L 59.246094 130.855469 Z M 70.570312 80.359375 " clip-rule="nonzero"/></clipPath><clipPath id="9e5bb94bdd"><path d="M 70.570312 80.359375 L 187.660156 106.617188 L 176.335938 157.113281 L 59.246094 130.855469 Z M 70.570312 80.359375 " clip-rule="nonzero"/></clipPath><clipPath id="f495a6d933"><path d="M 148 99 L 161 99 L 161 115 L 148 115 Z M 148 99 " clip-rule="nonzero"/></clipPath><clipPath id="7a9ca0aaf9"><path d="M 70.570312 80.359375 L 187.660156 106.617188 L 176.335938 157.113281 L 59.246094 130.855469 Z M 70.570312 80.359375 " clip-rule="nonzero"/></clipPath><clipPath id="5aea3de24e"><path d="M 70.570312 80.359375 L 187.660156 106.617188 L 176.335938 157.113281 L 59.246094 130.855469 Z M 70.570312 80.359375 " clip-rule="nonzero"/></clipPath><clipPath id="b77387e277"><path d="M 70.570312 80.359375 L 187.660156 106.617188 L 176.335938 157.113281 L 59.246094 130.855469 Z M 70.570312 80.359375 " clip-rule="nonzero"/></clipPath><clipPath id="77b8138f7f"><path d="M 164 102 L 174 102 L 174 115 L 164 115 Z M 164 102 " clip-rule="nonzero"/></clipPath><clipPath id="449a21d9c4"><path d="M 70.570312 80.359375 L 187.660156 106.617188 L 176.335938 157.113281 L 59.246094 130.855469 Z M 70.570312 80.359375 " clip-rule="nonzero"/></clipPath><clipPath id="153e554100"><path d="M 70.570312 80.359375 L 187.660156 106.617188 L 176.335938 157.113281 L 59.246094 130.855469 Z M 70.570312 80.359375 " clip-rule="nonzero"/></clipPath><clipPath id="d781a53412"><path d="M 70.570312 80.359375 L 187.660156 106.617188 L 176.335938 157.113281 L 59.246094 130.855469 Z M 70.570312 80.359375 " clip-rule="nonzero"/></clipPath><clipPath id="7362b89643"><path d="M 174 112 L 182 112 L 182 122 L 174 122 Z M 174 112 " clip-rule="nonzero"/></clipPath><clipPath id="b874d17a44"><path d="M 70.570312 80.359375 L 187.660156 106.617188 L 176.335938 157.113281 L 59.246094 130.855469 Z M 70.570312 80.359375 " clip-rule="nonzero"/></clipPath><clipPath id="8ce0e868b8"><path d="M 70.570312 80.359375 L 187.660156 106.617188 L 176.335938 157.113281 L 59.246094 130.855469 Z M 70.570312 80.359375 " clip-rule="nonzero"/></clipPath><clipPath id="a30f88a17b"><path d="M 70.570312 80.359375 L 187.660156 106.617188 L 176.335938 157.113281 L 59.246094 130.855469 Z M 70.570312 80.359375 " clip-rule="nonzero"/></clipPath><clipPath id="bd2f4e2de3"><path d="M 178 124 L 184 124 L 184 131 L 178 131 Z M 178 124 " clip-rule="nonzero"/></clipPath><clipPath id="0083203940"><path d="M 70.570312 80.359375 L 187.660156 106.617188 L 176.335938 157.113281 L 59.246094 130.855469 Z M 70.570312 80.359375 " clip-rule="nonzero"/></clipPath><clipPath id="0467f1d518"><path d="M 70.570312 80.359375 L 187.660156 106.617188 L 176.335938 157.113281 L 59.246094 130.855469 Z M 70.570312 80.359375 " clip-rule="nonzero"/></clipPath><clipPath id="c1a2e80119"><path d="M 70.570312 80.359375 L 187.660156 106.617188 L 176.335938 157.113281 L 59.246094 130.855469 Z M 70.570312 80.359375 " clip-rule="nonzero"/></clipPath><clipPath id="522ff6c7c5"><path d="M 104.109375 118.609375 L 311.109375 118.609375 L 311.109375 256.609375 L 104.109375 256.609375 Z M 104.109375 118.609375 " clip-rule="nonzero"/></clipPath></defs><g mask="url(#807af9165d)"><g transform="matrix(1, 0, 0, 1, 37, 66)"><g clip-path="url(#8c32f9d509)"><g clip-path="url(#c28a53a5a6)"><path fill="#b9d5f1" d="M 7.144531 48.585938 C 2.160156 61.5625 1.105469 75.695312 0.867188 89.597656 C 0.5 110.933594 2.109375 132.941406 11.5 152.097656 C 19.480469 168.371094 32.589844 181.554688 46.480469 193.195312 C 61.089844 205.4375 76.917969 216.386719 94.292969 224.210938 C 133.496094 241.871094 178.28125 242.664062 220.960938 237.515625 C 241.878906 234.992188 263.984375 230.449219 279.023438 215.691406 C 298.285156 196.792969 300.5 166.925781 300.390625 139.933594 C 300.28125 111.804688 298.269531 81.722656 281.289062 59.304688 C 260.695312 32.121094 224.105469 23.695312 190.484375 18.050781 C 153.5 11.84375 115.234375 4.390625 77.773438 2.171875 C 48.230469 0.425781 17.644531 21.234375 7.144531 48.585938 Z M 7.144531 48.585938 " fill-opacity="1" fill-rule="nonzero"/></g></g></g></g><g clip-path="url(#e816d4dbb0)"><g clip-path="url(#9730f69d78)"><g clip-path="url(#b65b1bd290)"><g clip-path="url(#63eb4e1e96)"><path fill="#000000" d="M 79.832031 120.328125 L 67.574219 117.578125 L 85.960938 100.265625 L 85.066406 96.976562 L 69.269531 93.433594 L 68.425781 97.199219 L 80.683594 99.949219 L 62.292969 117.261719 L 63.1875 120.546875 L 78.988281 124.09375 L 79.832031 120.328125 " fill-opacity="1" fill-rule="nonzero"/></g></g></g></g><g clip-path="url(#77f7a345b0)"><g clip-path="url(#f338b8d741)"><g clip-path="url(#d0fd75fc32)"><g clip-path="url(#5b3719b6ca)"><g clip-path="url(#cf91e2d3bd)"><path fill="#000000" d="M 84.074219 136.410156 L 98.007812 139.535156 L 98.753906 136.214844 L 87.941406 133.789062 L 104.160156 118.519531 L 103.371094 115.621094 L 89.4375 112.496094 L 88.691406 115.8125 L 99.503906 118.238281 L 83.285156 133.507812 L 84.074219 136.410156 " fill-opacity="1" fill-rule="nonzero"/></g></g></g></g></g><g clip-path="url(#e70037c337)"><g clip-path="url(#411168f425)"><g clip-path="url(#0f90f96c0e)"><g clip-path="url(#2bfe7a5616)"><path fill="#000000" d="M 109.851562 132.894531 L 120.566406 135.296875 L 121.140625 132.746094 L 112.828125 130.882812 L 125.292969 119.140625 L 124.691406 116.914062 L 113.976562 114.511719 L 113.402344 117.0625 L 121.714844 118.925781 L 109.246094 130.667969 L 109.851562 132.894531 " fill-opacity="1" fill-rule="nonzero"/></g></g></g></g><g clip-path="url(#e165db29e3)"><g clip-path="url(#9c7a3a8ef0)"><g clip-path="url(#3bb6dc87ef)"><g clip-path="url(#9e5bb94bdd)"><path fill="#000000" d="M 130.257812 124.546875 L 139.472656 126.613281 L 139.964844 124.417969 L 132.816406 122.8125 L 143.539062 112.714844 L 143.019531 110.796875 L 133.804688 108.730469 L 133.3125 110.925781 L 140.460938 112.53125 L 129.738281 122.628906 L 130.257812 124.546875 " fill-opacity="1" fill-rule="nonzero"/></g></g></g></g><g clip-path="url(#f495a6d933)"><g clip-path="url(#7a9ca0aaf9)"><g clip-path="url(#5aea3de24e)"><g clip-path="url(#b77387e277)"><path fill="#000000" d="M 149.292969 112.472656 L 157.007812 114.203125 L 157.421875 112.367188 L 151.433594 111.023438 L 160.414062 102.566406 L 159.980469 100.960938 L 152.261719 99.230469 L 151.847656 101.070312 L 157.835938 102.414062 L 148.855469 110.871094 L 149.292969 112.472656 " fill-opacity="1" fill-rule="nonzero"/></g></g></g></g><g clip-path="url(#77b8138f7f)"><g clip-path="url(#449a21d9c4)"><g clip-path="url(#153e554100)"><g clip-path="url(#d781a53412)"><path fill="#000000" d="M 164.898438 112.730469 L 171.117188 114.125 L 171.449219 112.644531 L 166.625 111.5625 L 173.863281 104.75 L 173.511719 103.453125 L 167.292969 102.058594 L 166.960938 103.542969 L 171.785156 104.625 L 164.546875 111.4375 L 164.898438 112.730469 " fill-opacity="1" fill-rule="nonzero"/></g></g></g></g><g clip-path="url(#7362b89643)"><g clip-path="url(#b874d17a44)"><g clip-path="url(#8ce0e868b8)"><g clip-path="url(#a30f88a17b)"><path fill="#000000" d="M 174.660156 120.8125 L 179.378906 121.871094 L 179.632812 120.746094 L 175.96875 119.925781 L 181.464844 114.753906 L 181.195312 113.773438 L 176.476562 112.714844 L 176.222656 113.835938 L 179.886719 114.660156 L 174.394531 119.832031 L 174.660156 120.8125 " fill-opacity="1" fill-rule="nonzero"/></g></g></g></g><g clip-path="url(#bd2f4e2de3)"><g clip-path="url(#0083203940)"><g clip-path="url(#0467f1d518)"><g clip-path="url(#c1a2e80119)"><path fill="#000000" d="M 178.699219 130.007812 L 181.921875 130.730469 L 182.09375 129.964844 L 179.59375 129.402344 L 183.34375 125.871094 L 183.160156 125.203125 L 179.941406 124.480469 L 179.769531 125.246094 L 182.265625 125.808594 L 178.519531 129.339844 L 178.699219 130.007812 " fill-opacity="1" fill-rule="nonzero"/></g></g></g></g><g clip-path="url(#522ff6c7c5)"><path fill="#000000" d="M 297.25 181.054688 L 297.25 135.859375 C 297.25 135.292969 297.222656 134.730469 297.167969 134.167969 C 297.109375 133.605469 297.027344 133.046875 296.917969 132.496094 C 296.804688 131.941406 296.667969 131.394531 296.503906 130.851562 C 296.339844 130.3125 296.152344 129.78125 295.933594 129.261719 C 295.71875 128.738281 295.476562 128.230469 295.210938 127.730469 C 294.945312 127.234375 294.652344 126.75 294.339844 126.28125 C 294.027344 125.808594 293.691406 125.355469 293.332031 124.921875 C 292.972656 124.484375 292.597656 124.066406 292.195312 123.667969 C 291.796875 123.269531 291.378906 122.890625 290.945312 122.53125 C 290.507812 122.171875 290.054688 121.835938 289.585938 121.523438 C 289.117188 121.207031 288.632812 120.917969 288.136719 120.652344 C 287.636719 120.386719 287.128906 120.144531 286.605469 119.925781 C 286.085938 119.710938 285.554688 119.519531 285.015625 119.355469 C 284.476562 119.191406 283.929688 119.054688 283.375 118.945312 C 282.820312 118.832031 282.265625 118.75 281.703125 118.695312 C 281.140625 118.636719 280.578125 118.609375 280.011719 118.609375 L 135.207031 118.609375 C 134.644531 118.609375 134.082031 118.636719 133.519531 118.695312 C 132.957031 118.75 132.398438 118.832031 131.847656 118.945312 C 131.292969 119.054688 130.746094 119.191406 130.207031 119.355469 C 129.664062 119.519531 129.136719 119.710938 128.613281 119.925781 C 128.09375 120.144531 127.582031 120.386719 127.085938 120.652344 C 126.585938 120.917969 126.105469 121.207031 125.636719 121.523438 C 125.164062 121.835938 124.714844 122.171875 124.277344 122.53125 C 123.839844 122.890625 123.421875 123.269531 123.023438 123.667969 C 122.625 124.066406 122.246094 124.484375 121.886719 124.921875 C 121.53125 125.355469 121.195312 125.808594 120.878906 126.28125 C 120.566406 126.75 120.277344 127.234375 120.011719 127.730469 C 119.746094 128.230469 119.503906 128.738281 119.285156 129.261719 C 119.070312 129.78125 118.878906 130.3125 118.714844 130.851562 C 118.550781 131.394531 118.414062 131.941406 118.304688 132.496094 C 118.191406 133.046875 118.109375 133.605469 118.054688 134.167969 C 117.996094 134.730469 117.96875 135.292969 117.96875 135.859375 L 117.96875 181.054688 C 117.003906 181.253906 116.0625 181.53125 115.144531 181.890625 C 114.226562 182.25 113.34375 182.6875 112.503906 183.199219 C 111.660156 183.710938 110.863281 184.289062 110.121094 184.933594 C 109.375 185.582031 108.691406 186.289062 108.070312 187.050781 C 107.445312 187.816406 106.890625 188.628906 106.40625 189.488281 C 105.921875 190.347656 105.515625 191.242188 105.183594 192.167969 C 104.851562 193.097656 104.601562 194.050781 104.433594 195.019531 C 104.265625 195.992188 104.179688 196.972656 104.179688 197.957031 L 104.179688 253.160156 C 104.179688 253.617188 104.265625 254.054688 104.441406 254.480469 C 104.613281 254.902344 104.863281 255.273438 105.1875 255.597656 C 105.511719 255.921875 105.882812 256.171875 106.304688 256.347656 C 106.730469 256.519531 107.167969 256.609375 107.625 256.609375 C 108.082031 256.609375 108.523438 256.519531 108.945312 256.347656 C 109.367188 256.171875 109.738281 255.921875 110.0625 255.597656 C 110.386719 255.273438 110.636719 254.902344 110.8125 254.480469 C 110.984375 254.054688 111.074219 253.617188 111.074219 253.160156 L 111.074219 242.808594 L 304.148438 242.808594 L 304.148438 253.160156 C 304.148438 253.617188 304.234375 254.054688 304.410156 254.480469 C 304.585938 254.902344 304.832031 255.273438 305.15625 255.597656 C 305.480469 255.921875 305.851562 256.171875 306.277344 256.347656 C 306.699219 256.519531 307.136719 256.609375 307.59375 256.609375 C 308.050781 256.609375 308.492188 256.519531 308.914062 256.347656 C 309.335938 256.171875 309.710938 255.921875 310.03125 255.597656 C 310.355469 255.273438 310.605469 254.902344 310.78125 254.480469 C 310.957031 254.054688 311.042969 253.617188 311.042969 253.160156 L 311.042969 197.957031 C 311.042969 196.972656 310.957031 195.992188 310.789062 195.019531 C 310.617188 194.050781 310.367188 193.097656 310.039062 192.167969 C 309.707031 191.242188 309.296875 190.347656 308.8125 189.488281 C 308.328125 188.628906 307.773438 187.816406 307.152344 187.050781 C 306.527344 186.289062 305.84375 185.582031 305.101562 184.933594 C 304.355469 184.289062 303.5625 183.710938 302.71875 183.199219 C 301.875 182.6875 300.996094 182.25 300.078125 181.890625 C 299.160156 181.53125 298.21875 181.253906 297.25 181.054688 Z M 124.863281 135.859375 C 124.863281 135.179688 124.929688 134.503906 125.0625 133.839844 C 125.195312 133.171875 125.390625 132.527344 125.652344 131.898438 C 125.910156 131.269531 126.230469 130.671875 126.609375 130.109375 C 126.984375 129.542969 127.414062 129.019531 127.894531 128.539062 C 128.375 128.058594 128.894531 127.628906 129.460938 127.253906 C 130.027344 126.875 130.621094 126.554688 131.25 126.296875 C 131.875 126.035156 132.523438 125.839844 133.191406 125.707031 C 133.855469 125.574219 134.527344 125.507812 135.207031 125.507812 L 280.011719 125.507812 C 280.691406 125.507812 281.363281 125.574219 282.03125 125.707031 C 282.695312 125.839844 283.34375 126.035156 283.972656 126.296875 C 284.597656 126.554688 285.195312 126.875 285.757812 127.253906 C 286.324219 127.628906 286.847656 128.058594 287.328125 128.539062 C 287.808594 129.019531 288.234375 129.542969 288.613281 130.109375 C 288.992188 130.671875 289.308594 131.269531 289.570312 131.898438 C 289.828125 132.527344 290.023438 133.171875 290.15625 133.839844 C 290.289062 134.503906 290.355469 135.179688 290.355469 135.859375 L 290.355469 180.707031 L 280.011719 180.707031 L 280.011719 160.007812 C 280.011719 159.101562 279.925781 158.203125 279.75 157.316406 C 279.570312 156.425781 279.308594 155.566406 278.964844 154.726562 C 278.617188 153.890625 278.191406 153.09375 277.6875 152.339844 C 277.1875 151.589844 276.613281 150.890625 275.972656 150.25 C 275.332031 149.609375 274.636719 149.039062 273.882812 148.535156 C 273.132812 148.03125 272.335938 147.605469 271.5 147.257812 C 270.664062 146.914062 269.800781 146.652344 268.914062 146.472656 C 268.023438 146.296875 267.128906 146.207031 266.222656 146.207031 L 224.847656 146.207031 C 223.945312 146.207031 223.046875 146.296875 222.160156 146.472656 C 221.269531 146.652344 220.40625 146.914062 219.570312 147.257812 C 218.734375 147.605469 217.941406 148.03125 217.1875 148.535156 C 216.433594 149.039062 215.738281 149.609375 215.097656 150.25 C 214.457031 150.890625 213.886719 151.589844 213.382812 152.339844 C 212.878906 153.09375 212.453125 153.890625 212.109375 154.726562 C 211.761719 155.566406 211.5 156.425781 211.324219 157.316406 C 211.144531 158.203125 211.058594 159.101562 211.058594 160.007812 L 211.058594 180.707031 L 204.164062 180.707031 L 204.164062 160.007812 C 204.164062 159.101562 204.074219 158.203125 203.898438 157.316406 C 203.722656 156.425781 203.460938 155.566406 203.113281 154.726562 C 202.765625 153.890625 202.339844 153.09375 201.839844 152.339844 C 201.335938 151.589844 200.761719 150.890625 200.125 150.25 C 199.484375 149.609375 198.785156 149.039062 198.035156 148.535156 C 197.28125 148.03125 196.484375 147.605469 195.648438 147.257812 C 194.8125 146.914062 193.949219 146.652344 193.0625 146.472656 C 192.175781 146.296875 191.277344 146.207031 190.371094 146.207031 L 149 146.207031 C 148.09375 146.207031 147.195312 146.296875 146.308594 146.472656 C 145.421875 146.652344 144.558594 146.914062 143.722656 147.257812 C 142.882812 147.605469 142.089844 148.03125 141.335938 148.535156 C 140.582031 149.039062 139.886719 149.609375 139.246094 150.25 C 138.605469 150.890625 138.035156 151.589844 137.53125 152.339844 C 137.027344 153.09375 136.605469 153.890625 136.257812 154.726562 C 135.910156 155.566406 135.648438 156.425781 135.472656 157.316406 C 135.296875 158.203125 135.207031 159.101562 135.207031 160.007812 L 135.207031 180.707031 L 124.863281 180.707031 Z M 273.117188 180.707031 L 217.953125 180.707031 L 217.953125 160.007812 C 217.953125 159.554688 217.996094 159.105469 218.085938 158.664062 C 218.175781 158.21875 218.304688 157.785156 218.476562 157.367188 C 218.652344 156.949219 218.863281 156.550781 219.117188 156.175781 C 219.367188 155.796875 219.652344 155.449219 219.972656 155.128906 C 220.292969 154.808594 220.640625 154.523438 221.019531 154.269531 C 221.394531 154.019531 221.792969 153.808594 222.210938 153.632812 C 222.628906 153.460938 223.058594 153.328125 223.503906 153.242188 C 223.949219 153.152344 224.394531 153.109375 224.847656 153.109375 L 266.222656 153.109375 C 266.675781 153.109375 267.125 153.152344 267.566406 153.242188 C 268.011719 153.328125 268.441406 153.460938 268.859375 153.632812 C 269.277344 153.808594 269.675781 154.019531 270.054688 154.269531 C 270.429688 154.523438 270.777344 154.808594 271.097656 155.128906 C 271.417969 155.449219 271.703125 155.796875 271.957031 156.175781 C 272.207031 156.550781 272.417969 156.949219 272.59375 157.367188 C 272.765625 157.785156 272.898438 158.21875 272.984375 158.664062 C 273.074219 159.105469 273.117188 159.554688 273.117188 160.007812 Z M 197.265625 180.707031 L 142.101562 180.707031 L 142.101562 160.007812 C 142.101562 159.554688 142.148438 159.105469 142.234375 158.664062 C 142.324219 158.21875 142.453125 157.785156 142.628906 157.367188 C 142.800781 156.949219 143.011719 156.550781 143.265625 156.175781 C 143.515625 155.796875 143.800781 155.449219 144.121094 155.128906 C 144.441406 154.808594 144.792969 154.523438 145.167969 154.269531 C 145.542969 154.019531 145.941406 153.808594 146.359375 153.632812 C 146.777344 153.460938 147.210938 153.328125 147.652344 153.242188 C 148.097656 153.152344 148.546875 153.109375 149 153.109375 L 190.371094 153.109375 C 190.824219 153.109375 191.273438 153.152344 191.71875 153.242188 C 192.160156 153.328125 192.59375 153.460938 193.011719 153.632812 C 193.429688 153.808594 193.824219 154.019531 194.203125 154.269531 C 194.578125 154.523438 194.925781 154.808594 195.246094 155.128906 C 195.566406 155.449219 195.851562 155.796875 196.105469 156.175781 C 196.355469 156.550781 196.570312 156.949219 196.742188 157.367188 C 196.914062 157.785156 197.046875 158.21875 197.132812 158.664062 C 197.222656 159.105469 197.265625 159.554688 197.265625 160.007812 Z M 121.417969 187.609375 L 293.804688 187.609375 C 294.484375 187.609375 295.15625 187.675781 295.820312 187.808594 C 296.488281 187.941406 297.136719 188.136719 297.761719 188.394531 C 298.390625 188.65625 298.984375 188.976562 299.550781 189.351562 C 300.113281 189.730469 300.636719 190.160156 301.117188 190.640625 C 301.597656 191.121094 302.027344 191.644531 302.402344 192.207031 C 302.78125 192.773438 303.101562 193.371094 303.359375 193.996094 C 303.621094 194.625 303.816406 195.273438 303.949219 195.9375 C 304.082031 196.605469 304.148438 197.277344 304.148438 197.957031 L 304.148438 222.109375 L 111.074219 222.109375 L 111.074219 197.957031 C 111.074219 197.277344 111.140625 196.605469 111.273438 195.9375 C 111.40625 195.273438 111.601562 194.625 111.859375 193.996094 C 112.121094 193.371094 112.4375 192.773438 112.816406 192.207031 C 113.195312 191.644531 113.621094 191.121094 114.101562 190.640625 C 114.582031 190.160156 115.105469 189.730469 115.671875 189.351562 C 116.234375 188.976562 116.832031 188.65625 117.457031 188.394531 C 118.085938 188.136719 118.734375 187.941406 119.398438 187.808594 C 120.066406 187.675781 120.738281 187.609375 121.417969 187.609375 Z M 111.074219 229.007812 L 304.148438 229.007812 L 304.148438 235.910156 L 111.074219 235.910156 Z M 111.074219 229.007812 " fill-opacity="1" fill-rule="nonzero"/></g></svg>