<svg xmlns="http://www.w3.org/2000/svg" xmlns:xlink="http://www.w3.org/1999/xlink" width="500" zoomAndPan="magnify" viewBox="0 0 375 374.999991" height="500" preserveAspectRatio="xMidYMid meet" version="1.0"><defs><filter x="0%" y="0%" width="100%" height="100%" id="5ae5318965"><feColorMatrix values="0 0 0 0 1 0 0 0 0 1 0 0 0 0 1 0 0 0 1 0" color-interpolation-filters="sRGB"/></filter><mask id="503cf101a9"><g filter="url(#5ae5318965)"><rect x="-37.5" width="450" fill="#000000" y="-37.499999" height="449.999989" fill-opacity="0.31"/></g></mask><clipPath id="c72d240c6d"><path d="M 0.5 2 L 300.5 2 L 300.5 241 L 0.5 241 Z M 0.5 2 " clip-rule="nonzero"/></clipPath><clipPath id="2ef48af65e"><rect x="0" width="301" y="0" height="243"/></clipPath><clipPath id="baab712316"><path d="M 95.472656 95.472656 L 279.222656 95.472656 L 279.222656 279.222656 L 95.472656 279.222656 Z M 95.472656 95.472656 " clip-rule="nonzero"/></clipPath></defs><g mask="url(#503cf101a9)"><g transform="matrix(1, 0, 0, 1, 37, 66)"><g clip-path="url(#2ef48af65e)"><g clip-path="url(#c72d240c6d)"><path fill="#b9d5f1" d="M 7.144531 48.585938 C 2.160156 61.5625 1.105469 75.695312 0.867188 89.597656 C 0.5 110.933594 2.109375 132.941406 11.5 152.097656 C 19.480469 168.371094 32.589844 181.554688 46.480469 193.195312 C 61.089844 205.4375 76.917969 216.386719 94.292969 224.210938 C 133.496094 241.871094 178.28125 242.664062 220.960938 237.515625 C 241.878906 234.992188 263.984375 230.449219 279.023438 215.691406 C 298.285156 196.792969 300.5 166.925781 300.390625 139.933594 C 300.28125 111.804688 298.269531 81.722656 281.289062 59.304688 C 260.695312 32.121094 224.105469 23.695312 190.484375 18.050781 C 153.5 11.84375 115.234375 4.390625 77.773438 2.171875 C 48.230469 0.425781 17.644531 21.234375 7.144531 48.585938 Z M 7.144531 48.585938 " fill-opacity="1" fill-rule="nonzero"/></g></g></g></g><g clip-path="url(#baab712316)"><path fill="#000000" d="M 187.347656 271.902344 C 140.722656 271.902344 102.792969 233.96875 102.792969 187.347656 C 102.792969 140.722656 140.722656 102.792969 187.347656 102.792969 C 233.96875 102.792969 271.898438 140.722656 271.898438 187.347656 C 271.898438 233.96875 233.96875 271.902344 187.347656 271.902344 Z M 272 151.582031 C 267.371094 140.640625 260.75 130.816406 252.3125 122.378906 C 243.875 113.945312 234.050781 107.320312 223.109375 102.691406 C 211.78125 97.898438 199.746094 95.472656 187.347656 95.472656 C 174.945312 95.472656 162.910156 97.898438 151.582031 102.691406 C 140.640625 107.320312 130.816406 113.945312 122.378906 122.378906 C 113.945312 130.816406 107.320312 140.640625 102.695312 151.582031 C 97.902344 162.910156 95.472656 174.945312 95.472656 187.347656 C 95.472656 199.746094 97.902344 211.78125 102.695312 223.109375 C 107.320312 234.050781 113.945312 243.875 122.378906 252.3125 C 130.816406 260.75 140.640625 267.371094 151.582031 272 C 162.910156 276.792969 174.945312 279.222656 187.347656 279.222656 C 199.746094 279.222656 211.78125 276.792969 223.109375 272 C 234.050781 267.371094 243.875 260.75 252.3125 252.3125 C 260.75 243.875 267.371094 234.050781 272 223.109375 C 276.792969 211.78125 279.222656 199.746094 279.222656 187.347656 C 279.222656 174.945312 276.792969 162.910156 272 151.582031 " fill-opacity="1" fill-rule="nonzero"/></g><path fill="#000000" d="M 231.378906 218.363281 L 191.007812 185.601562 L 191.007812 142.152344 C 191.007812 140.128906 189.367188 138.492188 187.347656 138.492188 C 185.324219 138.492188 183.683594 140.128906 183.683594 142.152344 L 183.683594 187.347656 C 183.683594 188.449219 184.183594 189.492188 185.039062 190.1875 L 226.769531 224.046875 C 227.445312 224.597656 228.261719 224.867188 229.070312 224.867188 C 230.136719 224.867188 231.195312 224.402344 231.917969 223.511719 C 233.191406 221.941406 232.949219 219.636719 231.378906 218.363281 " fill-opacity="1" fill-rule="nonzero"/></svg>